<?xml version="1.0" encoding="UTF-8"?>
<svg version="1.1" xmlns="http://www.w3.org/2000/svg" width="204" height="228">
<path d="M0 0 C2.4189861 1.91396328 4.75702631 3.8915883 7.08203125 5.91796875 C7.69175781 6.39621094 8.30148438 6.87445313 8.9296875 7.3671875 C26.28953732 21.16807039 37.29514835 44.11492072 40.67578125 65.7109375 C43.65958 92.4306632 37.60751751 118.85971526 21.09375 140.40625 C20.42988281 141.23511719 19.76601562 142.06398437 19.08203125 142.91796875 C18.19451172 144.05298828 18.19451172 144.05298828 17.2890625 145.2109375 C0.83178311 165.03687109 -23.15471882 175.51476066 -48.2578125 178.65625 C-76.01003579 180.64066725 -100.83825546 171.86777828 -121.91796875 153.91796875 C-122.72492188 153.31339844 -123.531875 152.70882812 -124.36328125 152.0859375 C-127.3982991 149.51034895 -129.80756306 146.61484889 -132.23046875 143.48046875 C-132.94614014 142.55729858 -132.94614014 142.55729858 -133.67626953 141.61547852 C-150.21903374 119.94018723 -157.74825201 94.95508989 -154.67041016 67.72802734 C-150.81599664 41.00196995 -136.94781953 18.98161827 -116.49609375 1.89453125 C-82.41266986 -23.3821019 -34.74131221 -24.78864713 0 0 Z M-121.796875 21.453125 C-138.15342982 40.46046586 -145.71181005 63.90941592 -143.91796875 88.91796875 C-141.35227564 111.449339 -131.36399394 133.04950423 -113.55541992 147.62597656 C-93.49956499 163.45057539 -70.20731195 170.0025605 -44.73046875 167.23046875 C-22.71260256 164.00295021 -1.38771365 152.65696268 12.25390625 134.79760742 C27.22204357 114.04606364 33.26440434 89.79016736 29.26245117 64.46459961 C25.13395554 42.20031031 13.14890557 23.35427094 -4.8359375 9.703125 C-7.47395066 7.96348284 -10.13362817 6.41072938 -12.91796875 4.91796875 C-13.871875 4.38816406 -14.82578125 3.85835937 -15.80859375 3.3125 C-51.43003681 -15.57059482 -94.29317275 -7.26174945 -121.796875 21.453125 Z " fill="#2CA7F2" transform="translate(157.91796875,41.08203125)"/>
<path d="M0 0 C0.98756287 -0.0087616 1.97512573 -0.01752319 2.99261475 -0.02655029 C6.25333742 -0.04853646 9.51270131 -0.03399354 12.7734375 -0.01708984 C15.04118103 -0.02045818 17.3089228 -0.02531094 19.57666016 -0.03158569 C24.32797443 -0.038956 29.07881852 -0.02824584 33.83007812 -0.00488281 C39.92023137 0.02360437 46.00928293 0.00720135 52.09939575 -0.02274513 C56.78174133 -0.04081342 61.46382575 -0.03506208 66.1461792 -0.02210617 C68.39166392 -0.0187709 70.63717237 -0.02286346 72.88262939 -0.03450394 C76.02135008 -0.04720428 79.15828717 -0.02784536 82.296875 0 C83.22481873 -0.01012115 84.15276245 -0.02024231 85.10882568 -0.03067017 C89.37053202 0.03936938 92.14089568 0.09513699 95.26416016 3.18740845 C95.88597168 3.99906464 96.5077832 4.81072083 97.1484375 5.64697266 C95.8121614 10.2631992 95.8121614 10.2631992 93.16491699 11.79386902 C88.94014559 12.98869493 84.94303677 12.93366367 80.57226562 12.92163086 C79.13481239 12.92929726 79.13481239 12.92929726 77.6683197 12.93711853 C74.50537852 12.95100169 71.3426555 12.95005891 68.1796875 12.94775391 C65.97920653 12.95164109 63.77872632 12.95597581 61.57824707 12.96073914 C56.96831834 12.96819828 52.35846621 12.96791193 47.74853516 12.96264648 C41.84024349 12.95684756 35.93226486 12.97379474 30.02402496 12.99699116 C25.48071458 13.01171889 20.9374798 13.01260158 16.39414978 13.00948143 C14.21564615 13.00999497 12.03713832 13.01523877 9.85865784 13.02529335 C6.81376752 13.03762372 3.76948982 13.03088662 0.72460938 13.01928711 C-0.17528214 13.02693085 -1.07517365 13.03457458 -2.00233459 13.04244995 C-6.76911356 13.00229415 -9.99002054 12.7684734 -13.8515625 9.64697266 C-14.9765625 7.77197266 -14.9765625 7.77197266 -14.8515625 5.64697266 C-10.59822494 -0.18058001 -6.6780945 -0.0728385 0 0 Z " fill="#2DA7EE" transform="translate(59.8515625,136.35302734375)"/>
<path d="M0 0 C0.99892273 -0.0087616 1.99784546 -0.01752319 3.02703857 -0.02655029 C6.3250283 -0.04853594 9.62167467 -0.03399477 12.91967773 -0.01708984 C15.21223712 -0.02045793 17.50479476 -0.02531048 19.79734802 -0.03158569 C24.59993506 -0.03895571 29.4020569 -0.02824576 34.20458984 -0.00488281 C40.36433922 0.02362041 46.52300015 0.00719097 52.68270969 -0.02274513 C57.41562626 -0.04080048 62.14828412 -0.03506831 66.88120842 -0.02210617 C69.15263942 -0.01876815 71.42409383 -0.02287308 73.69549751 -0.03450394 C76.86794523 -0.04718477 80.03862193 -0.02787342 83.2109375 0 C84.15182724 -0.01012115 85.09271698 -0.02024231 86.06211853 -0.03067017 C92.45057658 0.07346724 92.45057658 0.07346724 95.65513611 3.18740845 C96.11239578 3.99906464 96.56965546 4.81072083 97.04077148 5.64697266 C95.16577148 10.52197266 95.16577148 10.52197266 94.04077148 11.64697266 C92.68159954 11.74662336 91.31731516 11.77771739 89.95449829 11.78068542 C88.63371025 11.7870829 88.63371025 11.7870829 87.28623962 11.79360962 C86.31272049 11.79315643 85.33920135 11.79270325 84.33618164 11.79223633 C83.31672958 11.79559494 82.29727753 11.79895355 81.24693298 11.80241394 C77.85788778 11.81195674 74.46889181 11.81386877 71.07983398 11.81494141 C68.73432393 11.81815187 66.38881407 11.82151577 64.04330444 11.82502747 C59.11862727 11.83102721 54.19396768 11.83286652 49.26928711 11.83227539 C42.94822957 11.83217376 36.62728434 11.84582276 30.30625343 11.8630476 C25.45935546 11.87414821 20.6124848 11.87619519 15.76557541 11.87566566 C13.43470243 11.87684884 11.10382882 11.88128937 8.77296829 11.88899803 C5.51661494 11.89875804 2.26050741 11.89593554 -0.99584961 11.88989258 C-1.96532028 11.89551208 -2.93479095 11.90113159 -3.93363953 11.90692139 C-4.81980453 11.9027269 -5.70596954 11.89853241 -6.61898804 11.89421082 C-7.38922995 11.89475558 -8.15947186 11.89530035 -8.95305443 11.89586163 C-10.95922852 11.64697266 -10.95922852 11.64697266 -13.95922852 9.64697266 C-14.95922852 7.83447266 -14.95922852 7.83447266 -14.95922852 5.64697266 C-10.71364746 -0.22383782 -6.69481733 -0.07217145 0 0 Z " fill="#28A9F8" transform="translate(59.959228515625,72.35302734375)"/>
<path d="M0 0 C0.87204071 -0.00860046 1.74408142 -0.01720093 2.64254761 -0.02606201 C3.60154968 -0.03032196 4.56055176 -0.03458191 5.5486145 -0.03897095 C7.06097183 -0.05123718 7.06097183 -0.05123718 8.60388184 -0.06375122 C11.95019938 -0.08862465 15.2964745 -0.10512454 18.64285278 -0.11953735 C19.78341251 -0.12486103 20.92397224 -0.13018471 22.09909439 -0.13566971 C28.13369322 -0.16240728 34.1682713 -0.18178196 40.20291138 -0.19619751 C46.44668779 -0.21286438 52.68993832 -0.25765803 58.93351555 -0.30856895 C63.72555168 -0.34216292 68.51746167 -0.35376625 73.30960464 -0.35942459 C75.61177728 -0.36615671 77.91394105 -0.38142919 80.2159996 -0.4053154 C83.43408333 -0.43680617 86.65073073 -0.43702775 89.868927 -0.42959595 C91.30135742 -0.45420395 91.30135742 -0.45420395 92.76272583 -0.47930908 C99.24688888 -0.41785346 99.24688888 -0.41785346 102.46124268 2.69036865 C102.91562714 3.50333405 103.3700116 4.31629944 103.83816528 5.15390015 C102.08816528 10.02890015 102.08816528 10.02890015 99.83816528 11.15390015 C98.45362351 11.25385808 97.06445396 11.29326465 95.67633057 11.30107117 C94.80428986 11.30822647 93.93224915 11.31538177 93.03378296 11.32275391 C92.07478088 11.32544281 91.11577881 11.32813171 90.12771606 11.3309021 C88.61535873 11.3407589 88.61535873 11.3407589 87.07244873 11.35081482 C83.72612439 11.37057383 80.37984494 11.38221512 77.03347778 11.3921814 C75.89291805 11.39625692 74.75235832 11.40033245 73.57723618 11.40453148 C67.54263234 11.42540153 61.50805133 11.43970023 55.47341919 11.44906616 C49.22972417 11.46014339 42.98638428 11.49455606 36.74281502 11.53423786 C31.95077841 11.5603363 27.15882736 11.56875189 22.36672592 11.57234764 C20.06456982 11.57722972 17.76241794 11.58888945 15.46033096 11.60738564 C12.2423989 11.63163666 9.02539831 11.63083773 5.80740356 11.62387085 C4.85244995 11.63668091 3.89749634 11.64949097 2.91360474 11.66268921 C-3.57050393 11.61138982 -3.57050393 11.61138982 -6.78491211 9.12452698 C-7.4664888 8.1490667 -7.4664888 8.1490667 -8.16183472 7.15390015 C-7.55999723 5.13344572 -6.88877376 3.13278975 -6.16183472 1.15390015 C-3.86540986 0.00568772 -2.55437478 0.01873125 0 0 Z " fill="#28A9F9" transform="translate(53.161834716796875,115.84609985351563)"/>
<path d="M0 0 C1.33340927 -0.0129007 1.33340927 -0.0129007 2.6937561 -0.02606201 C3.67662598 -0.03032196 4.65949585 -0.03458191 5.67214966 -0.03897095 C6.70135529 -0.04714844 7.73056091 -0.05532593 8.79095459 -0.06375122 C12.21244717 -0.08865805 15.63389818 -0.10513333 19.05545044 -0.11953735 C20.80263556 -0.12752287 20.80263556 -0.12752287 22.58511734 -0.13566971 C28.74823601 -0.16242226 34.91133427 -0.18179182 41.07449341 -0.19619751 C47.45627525 -0.2128649 53.83754262 -0.25765474 60.21912956 -0.30856895 C65.11235176 -0.34214183 70.0054503 -0.35376397 74.89877701 -0.35942459 C77.25201481 -0.36616296 79.60524376 -0.3814514 81.95837021 -0.4053154 C85.24620882 -0.43676017 88.53263911 -0.43703467 91.82058716 -0.42959595 C92.79940857 -0.44600128 93.77822998 -0.46240662 94.78671265 -0.47930908 C97.25591881 -0.45634851 99.472483 -0.41299825 101.87576294 0.15390015 C104.00421143 2.69036865 104.00421143 2.69036865 104.87576294 5.15390015 C103.81326294 7.59140015 103.81326294 7.59140015 101.87576294 10.15390015 C96.37578381 11.33426553 90.85581428 11.31947792 85.25613403 11.34677124 C84.31704697 11.35494873 83.3779599 11.36312622 82.41041565 11.37155151 C79.32335021 11.39623354 76.23632992 11.41286961 73.14920044 11.42733765 C72.09170216 11.43266132 71.03420387 11.437985 69.94466019 11.44347 C64.35627215 11.47011585 58.76790587 11.48952528 53.17947388 11.5039978 C48.5565531 11.51737795 43.93406943 11.54531783 39.31130981 11.58602905 C33.72055422 11.6352543 28.13019722 11.66010469 22.53923416 11.66722488 C20.41093205 11.6739455 18.28263913 11.6891885 16.15446091 11.71311569 C13.18136535 11.74465893 10.20982103 11.74482124 7.23660278 11.73739624 C6.35855484 11.75380157 5.4805069 11.77020691 4.57585144 11.78710938 C0.04456067 11.74074197 -1.57733187 11.60355467 -5.20928955 8.61743164 C-5.84122223 7.80446625 -6.47315491 6.99150085 -7.12423706 6.15390015 C-4.77051319 0.03421808 -4.77051319 0.03421808 0 0 Z " fill="#2EA6F0" transform="translate(52.124237060546875,94.84609985351563)"/>
<path d="M0 0 C1.63696083 -0.01925285 1.63696083 -0.01925285 3.30699158 -0.03889465 C4.4903157 -0.04628159 5.67363983 -0.05366852 6.89282227 -0.0612793 C8.10365982 -0.06935104 9.31449738 -0.07742279 10.56202698 -0.08573914 C13.12678593 -0.09958696 15.69156336 -0.11030597 18.25634766 -0.11816406 C22.18956056 -0.1354118 26.12194076 -0.1792974 30.05493164 -0.22338867 C32.54255565 -0.23351208 35.03018682 -0.24202928 37.51782227 -0.2487793 C38.69912216 -0.26628738 39.88042206 -0.28379547 41.09751892 -0.30183411 C42.1919783 -0.29890854 43.28643768 -0.29598297 44.4140625 -0.29296875 C45.37843735 -0.29883499 46.34281219 -0.30470123 47.33641052 -0.31074524 C49.77172852 0.17700195 49.77172852 0.17700195 51.61439514 2.07746887 C52.77172852 4.17700195 52.77172852 4.17700195 52.64672852 6.23950195 C51.61954356 8.51398292 50.72806927 9.62015248 48.77172852 11.17700195 C46.43252563 11.57141113 46.43252563 11.57141113 43.64526367 11.59692383 C42.07816147 11.62079163 42.07816147 11.62079163 40.47940063 11.6451416 C38.78718887 11.64544373 38.78718887 11.64544373 37.06079102 11.64575195 C35.32036026 11.65717224 35.32036026 11.65717224 33.54476929 11.66882324 C31.08854323 11.67963644 28.63227114 11.68247243 26.17602539 11.67797852 C22.41808229 11.67700747 18.66218849 11.71859271 14.90454102 11.76293945 C12.51912861 11.76814721 10.1337091 11.77083463 7.74829102 11.77075195 C6.06215195 11.79534485 6.06215195 11.79534485 4.34194946 11.82043457 C-4.3437369 11.74353547 -4.3437369 11.74353547 -7.47680664 8.63989258 C-8.05479004 7.82713867 -8.63277344 7.01438477 -9.22827148 6.17700195 C-7.19711751 0.5187873 -5.88763026 0.06014975 0 0 Z " fill="#2FA6F0" transform="translate(54.228271484375,158.822998046875)"/>
<path d="M0 0 C0.87204071 -0.00860046 1.74408142 -0.01720093 2.64254761 -0.02606201 C3.60154968 -0.03032196 4.56055176 -0.03458191 5.5486145 -0.03897095 C7.06097183 -0.05123718 7.06097183 -0.05123718 8.60388184 -0.06375122 C11.95019938 -0.08862465 15.2964745 -0.10512454 18.64285278 -0.11953735 C19.78341251 -0.12486103 20.92397224 -0.13018471 22.09909439 -0.13566971 C28.13369322 -0.16240728 34.1682713 -0.18178196 40.20291138 -0.19619751 C46.44668779 -0.21286438 52.68993832 -0.25765803 58.93351555 -0.30856895 C63.72555168 -0.34216292 68.51746167 -0.35376625 73.30960464 -0.35942459 C75.61177728 -0.36615671 77.91394105 -0.38142919 80.2159996 -0.4053154 C83.43408333 -0.43680617 86.65073073 -0.43702775 89.868927 -0.42959595 C91.30135742 -0.45420395 91.30135742 -0.45420395 92.76272583 -0.47930908 C99.24688888 -0.41785346 99.24688888 -0.41785346 102.46124268 2.69036865 C102.91562714 3.50333405 103.3700116 4.31629944 103.83816528 5.15390015 C102.08816528 10.02890015 102.08816528 10.02890015 99.83816528 11.15390015 C98.45362351 11.25385808 97.06445396 11.29326465 95.67633057 11.30107117 C94.80428986 11.30822647 93.93224915 11.31538177 93.03378296 11.32275391 C92.07478088 11.32544281 91.11577881 11.32813171 90.12771606 11.3309021 C88.61535873 11.3407589 88.61535873 11.3407589 87.07244873 11.35081482 C83.72612439 11.37057383 80.37984494 11.38221512 77.03347778 11.3921814 C75.89291805 11.39625692 74.75235832 11.40033245 73.57723618 11.40453148 C67.54263234 11.42540153 61.50805133 11.43970023 55.47341919 11.44906616 C49.22972417 11.46014339 42.98638428 11.49455606 36.74281502 11.53423786 C31.95077841 11.5603363 27.15882736 11.56875189 22.36672592 11.57234764 C20.06456982 11.57722972 17.76241794 11.58888945 15.46033096 11.60738564 C12.2423989 11.63163666 9.02539831 11.63083773 5.80740356 11.62387085 C4.85244995 11.63668091 3.89749634 11.64949097 2.91360474 11.66268921 C-3.57050393 11.61138982 -3.57050393 11.61138982 -6.78491211 9.12452698 C-7.4664888 8.1490667 -7.4664888 8.1490667 -8.16183472 7.15390015 C-7.55999723 5.13344572 -6.88877376 3.13278975 -6.16183472 1.15390015 C-3.86540986 0.00568772 -2.55437478 0.01873125 0 0 Z M-2.16183472 3.15390015 C-3.49516805 6.15390015 -3.49516805 6.15390015 -2.16183472 9.15390015 C10.82466952 9.30760118 23.81122376 9.45578294 36.79787159 9.59686375 C42.82769539 9.66254353 48.85748504 9.73014453 54.88723755 9.80209351 C60.70322588 9.8714218 66.51924973 9.93575927 72.33533287 9.99659538 C74.55737002 10.02072297 76.77938818 10.04666731 79.00138283 10.07443428 C82.10685889 10.11293521 85.21233886 10.14505172 88.31790161 10.17562866 C89.24218964 10.18857468 90.16647766 10.20152069 91.11877441 10.21485901 C91.96431381 10.2218985 92.80985321 10.22893799 93.68101501 10.2361908 C94.78301853 10.248635 94.78301853 10.248635 95.90728474 10.2613306 C98.05862649 10.22654533 98.05862649 10.22654533 100.83816528 9.15390015 C101.52598889 6.80022302 101.52598889 6.80022302 101.83816528 4.15390015 C100.84816528 2.66890015 100.84816528 2.66890015 99.83816528 1.15390015 C96.75468643 0.85721754 93.87198052 0.75514195 90.78616333 0.78158569 C89.8478064 0.77793503 88.90944946 0.77428436 87.94265747 0.77052307 C84.82821779 0.76239092 81.7142942 0.77605291 78.59988403 0.7906189 C76.43995667 0.79113731 74.28002883 0.79062033 72.12010193 0.78910828 C67.58635441 0.78919813 63.05278422 0.79965149 58.51907349 0.81771851 C52.70826836 0.84036539 46.89772347 0.84095845 41.08688641 0.83420086 C36.62334381 0.83085777 32.15986047 0.8374981 27.69632912 0.84733009 C25.55411909 0.85117956 23.41190246 0.85233136 21.26968956 0.85074425 C18.27244923 0.85037314 15.27554122 0.86300815 12.27835083 0.87924194 C11.39244766 0.87676453 10.50654449 0.87428711 9.59379578 0.87173462 C3.47013838 0.90886645 3.47013838 0.90886645 -2.16183472 3.15390015 Z " fill="#41A3E2" transform="translate(53.161834716796875,115.84609985351563)"/>
<path d="M0 0 C0.99892273 -0.0087616 1.99784546 -0.01752319 3.02703857 -0.02655029 C6.3250283 -0.04853594 9.62167467 -0.03399477 12.91967773 -0.01708984 C15.21223712 -0.02045793 17.50479476 -0.02531048 19.79734802 -0.03158569 C24.59993506 -0.03895571 29.4020569 -0.02824576 34.20458984 -0.00488281 C40.36433922 0.02362041 46.52300015 0.00719097 52.68270969 -0.02274513 C57.41562626 -0.04080048 62.14828412 -0.03506831 66.88120842 -0.02210617 C69.15263942 -0.01876815 71.42409383 -0.02287308 73.69549751 -0.03450394 C76.86794523 -0.04718477 80.03862193 -0.02787342 83.2109375 0 C84.15182724 -0.01012115 85.09271698 -0.02024231 86.06211853 -0.03067017 C92.45057658 0.07346724 92.45057658 0.07346724 95.65513611 3.18740845 C96.11239578 3.99906464 96.56965546 4.81072083 97.04077148 5.64697266 C95.16577148 10.52197266 95.16577148 10.52197266 94.04077148 11.64697266 C92.67468822 11.74232479 91.30371693 11.76885936 89.93431091 11.76722717 C89.04945007 11.76860184 88.16458923 11.7699765 87.25291443 11.77139282 C85.78556602 11.76599991 85.78556602 11.76599991 84.28857422 11.76049805 C83.26430328 11.76064407 82.24003235 11.7607901 81.1847229 11.76094055 C77.78124919 11.76024094 74.37782944 11.75244629 70.97436523 11.74462891 C68.6216688 11.7427649 66.26897198 11.74134091 63.91627502 11.74034119 C57.71020444 11.73651465 51.50415708 11.72668321 45.2980957 11.71563721 C38.9707877 11.705426 32.64347597 11.70084419 26.31616211 11.69580078 C13.89102167 11.68506106 1.4658985 11.66798302 -10.95922852 11.64697266 C-10.95922852 11.31697266 -10.95922852 10.98697266 -10.95922852 10.64697266 C40.52077148 10.15197266 40.52077148 10.15197266 93.04077148 9.64697266 C93.37077148 7.99697266 93.70077148 6.34697266 94.04077148 4.64697266 C91.75748795 3.50533089 90.46612373 3.51058134 87.927948 3.48875427 C87.06695496 3.47896545 86.20596191 3.46917664 85.31887817 3.45909119 C84.3722934 3.45333572 83.42570862 3.44758026 82.45043945 3.44165039 C81.4552832 3.43175079 80.46012695 3.4218512 79.43481445 3.41165161 C76.13422045 3.37997772 72.83361203 3.35525591 69.53295898 3.33056641 C67.24894835 3.31000196 64.96494157 3.28900563 62.68093872 3.26759338 C56.66069653 3.21232006 50.6404197 3.162934 44.62011719 3.11474609 C38.4803559 3.06456944 32.3406451 3.00886338 26.20092773 2.95361328 C14.14758542 2.84596738 2.09419932 2.74453672 -9.95922852 2.64697266 C-10.61922852 5.28697266 -11.27922852 7.92697266 -11.95922852 10.64697266 C-13.95922852 9.64697266 -13.95922852 9.64697266 -14.89672852 7.89697266 C-14.95922852 5.64697266 -14.95922852 5.64697266 -13.08558655 3.04678345 C-8.71481252 -0.30824837 -5.37044707 -0.05789448 0 0 Z " fill="#419BD8" transform="translate(59.959228515625,72.35302734375)"/>
<path d="M0 0 C0 3 0 3 -2.0625 6 C-3.0215625 7.485 -3.0215625 7.485 -4 9 C-3.505 10.485 -3.505 10.485 -3 12 C-3.66 12.66 -4.32 13.32 -5 14 C-5.7425 13.773125 -6.485 13.54625 -7.25 13.3125 C-9.92839189 12.71189866 -9.92839189 12.71189866 -11.58984375 14.0390625 C-13.07665338 15.34047533 -14.53940374 16.66923451 -16 18 C-16.66 18 -17.32 18 -18 18 C-18.495 20.475 -18.495 20.475 -19 23 C-20.65 23 -22.3 23 -24 23 C-24 23.99 -24 24.98 -24 26 C-24 26.99 -24 27.98 -24 29 C-23.01 29 -22.02 29 -21 29 C-21 28.01 -21 27.02 -21 26 C-20.34 26 -19.68 26 -19 26 C-19 26.66 -19 27.32 -19 28 C-18.01 28.33 -17.02 28.66 -16 29 C-32.94196542 38.93829995 -51.10735604 44.81194465 -71 44 C-70.67 43.34 -70.34 42.68 -70 42 C-68.13330078 41.63696289 -68.13330078 41.63696289 -65.6953125 41.47265625 C-64.80618164 41.4044165 -63.91705078 41.33617676 -63.00097656 41.26586914 C-62.0519043 41.19875732 -61.10283203 41.13164551 -60.125 41.0625 C-48.74681871 40.39182388 -48.74681871 40.39182388 -38 37 C-37.67 36.01 -37.34 35.02 -37 34 C-41.86051596 31.40772482 -46.65271133 31.81310447 -52 32 C-48.55041982 30.09590005 -45.01663489 29.06506559 -41.25 27.9375 C-25.41882036 22.84487096 -10.11309316 13.38780904 0 0 Z " fill="#35A4E8" transform="translate(169,176)"/>
<path d="M0 0 C0 0.99 0 1.98 0 3 C-0.66 3 -1.32 3 -2 3 C-2.309375 4.175625 -2.309375 4.175625 -2.625 5.375 C-4 8 -4 8 -6.8125 9.3125 C-9.67796925 9.93054239 -12.08563333 10.17143333 -15 10 C-15.33 10.66 -15.66 11.32 -16 12 C-16.99 12 -17.98 12 -19 12 C-19.33 12.99 -19.66 13.98 -20 15 C-23.96 15.33 -27.92 15.66 -32 16 C-32.33 15.01 -32.66 14.02 -33 13 C-31.35 12.67 -29.7 12.34 -28 12 C-28 11.01 -28 10.02 -28 9 C-27.01 9 -26.02 9 -25 9 C-25 8.01 -25 7.02 -25 6 C-24.360625 5.71125 -23.72125 5.4225 -23.0625 5.125 C-20.84793921 4.17176549 -20.84793921 4.17176549 -20 2 C-13.26039646 -1.09068688 -7.19656456 -1.27088268 0 0 Z " fill="#28AAF6" transform="translate(87,27)"/>
<path d="M0 0 C3.60339296 1.33663142 6.93160727 3.00366513 10.31616211 4.81811523 C21.65296823 10.81995377 33.16250132 14.08303581 46 15 C46 15.33 46 15.66 46 16 C36.12277749 16.59066447 28.3352222 15.13506713 19 12 C18.67 12.66 18.34 13.32 18 14 C17.01 13.67 16.02 13.34 15 13 C14.67 14.65 14.34 16.3 14 18 C17.3 18.99 20.6 19.98 24 21 C23.67 21.66 23.34 22.32 23 23 C14.84577759 20.0506004 7.13915166 16.77910391 -0.3125 12.3125 C-0.95195557 11.93230713 -1.59141113 11.55211426 -2.25024414 11.16040039 C-5.25989708 9.305638 -7.009954 7.98506901 -9 5 C-8.34 4.67 -7.68 4.34 -7 4 C-6.67 4.66 -6.34 5.32 -6 6 C-4.35636866 6.72159424 -2.68949614 7.39351421 -1 8 C-1 8.66 -1 9.32 -1 10 C-0.01 10 0.98 10 2 10 C2 10.66 2 11.32 2 12 C3.32 12 4.64 12 6 12 C5.5359375 11.1028125 5.5359375 11.1028125 5.0625 10.1875 C4 8 4 8 3 5 C2.02308143 3.31970006 1.02611949 1.65071396 0 0 Z " fill="#34A3EB" transform="translate(50,193)"/>
<path d="M0 0 C0.99 0 1.98 0 3 0 C3 1.32 3 2.64 3 4 C2.01 4.33 1.02 4.66 0 5 C-1.03435556 6.64556566 -2.02763513 8.3170608 -3 10 C-5.38115291 13.17487054 -7.66440127 15.77626751 -11 18 C-13.6875 18.125 -13.6875 18.125 -16 18 C-16 17.34 -16 16.68 -16 16 C-16.66 16 -17.32 16 -18 16 C-18 16.99 -18 17.98 -18 19 C-19.32 19.33 -20.64 19.66 -22 20 C-22.33 18.02 -22.66 16.04 -23 14 C-20.35261084 12.5393715 -19.10551666 12 -16 12 C-15.91234375 11.40832031 -15.8246875 10.81664062 -15.734375 10.20703125 C-14.38118797 6.14027236 -10.6507673 3.98321757 -7 2 C-4 2.125 -4 2.125 -2 3 C-1.34 2.01 -0.68 1.02 0 0 Z " fill="#28AAF7" transform="translate(166,186)"/>
<path d="M0 0 C1.65 0 3.3 0 5 0 C5.33 0.99 5.66 1.98 6 3 C7.3303125 3.433125 7.3303125 3.433125 8.6875 3.875 C12.72102937 5.2448779 14.99420222 6.99420222 18 10 C19.25 13.25 19.25 13.25 20 16 C20.66 16.33 21.32 16.66 22 17 C21.67 17.66 21.34 18.32 21 19 C19.68 19 18.36 19 17 19 C17 18.34 17 17.68 17 17 C16.01 17 15.02 17 14 17 C13.67 16.34 13.34 15.68 13 15 C11.88625 14.566875 11.88625 14.566875 10.75 14.125 C7.61479302 12.84241533 5.54775133 11.22111655 3 9 C2.21625 8.360625 1.4325 7.72125 0.625 7.0625 C-1 5 -1 5 -0.75 2.25 C-0.5025 1.5075 -0.255 0.765 0 0 Z " fill="#27AAF9" transform="translate(35,186)"/>
<path d="M0 0 C0.66 0.33 1.32 0.66 2 1 C-0.49825283 4.21203935 -3.0702992 7.17493137 -6 10 C-4.6910428 13.12197478 -4.6910428 13.12197478 -2 15 C-2.04125 14.071875 -2.0825 13.14375 -2.125 12.1875 C-2 9 -2 9 0 6 C0.66 6.33 1.32 6.66 2 7 C2.33 7.99 2.66 8.98 3 10 C4.32 9.34 5.64 8.68 7 8 C2.33333333 12.66666667 -2.33333333 17.33333333 -7 22 C-7 19 -7 19 -6 16 C-6.928125 16.2475 -6.928125 16.2475 -7.875 16.5 C-10 17 -10 17 -12 17 C-12.928125 18.0209375 -12.928125 18.0209375 -13.875 19.0625 C-14.57625 19.701875 -15.2775 20.34125 -16 21 C-18.1328125 20.62109375 -18.1328125 20.62109375 -20 20 C-5.68181818 3.86363636 -5.68181818 3.86363636 0 0 Z " fill="#32A3E7" transform="translate(43,42)"/>
<path d="M0 0 C1.31216124 2.62432247 2.450522 5.0444932 3.48046875 7.7578125 C6.79142591 16.26850174 10.19920716 23.82394321 16 31 C15.67 31.66 15.34 32.32 15 33 C14.34 33 13.68 33 13 33 C12.896875 32.401875 12.79375 31.80375 12.6875 31.1875 C11.91123545 28.71756736 10.92911079 27.67748765 9 26 C8.34 26.33 7.68 26.66 7 27 C6.34 24.69 5.68 22.38 5 20 C3.39585785 21.18523997 3.39585785 21.18523997 2 23 C1.74930087 25.62570704 1.74930087 25.62570704 2 28 C2.99 28.33 3.98 28.66 5 29 C5 30.32 5 31.64 5 33 C5.66 33 6.32 33 7 33 C7.33 34.65 7.66 36.3 8 38 C4.56554555 34.85110693 2.23805168 31.46825715 -0.1875 27.5 C-0.54263672 26.93152344 -0.89777344 26.36304688 -1.26367188 25.77734375 C-3.01726435 22.90903879 -4.45152339 20.33997694 -5 17 C-4.01 17.33 -3.02 17.66 -2 18 C-2 18.99 -2 19.98 -2 21 C-1.01 21 -0.02 21 1 21 C1 19.35 1 17.7 1 16 C1.99 15.67 2.98 15.34 4 15 C3.67 13.35 3.34 11.7 3 10 C2.34 10 1.68 10 1 10 C0.67 6.7 0.34 3.4 0 0 Z " fill="#33A4E3" transform="translate(16,143)"/>
<path d="M0 0 C4.18723179 3.51148257 8.13394584 7.13394584 12 11 C13.96996187 12.70730028 15.97780221 14.35402506 18 16 C14.26879511 16 12.21944311 14.81968524 9 13 C8.67 12.34 8.34 11.68 8 11 C6.35 11 4.7 11 3 11 C2.54636593 15.10850142 2.54636593 15.10850142 5.4375 17.625 C6.283125 18.40875 7.12875 19.1925 8 20 C8.33 20.66 8.66 21.32 9 22 C3.63225426 19.72903065 -0.57826915 16.56468029 -2.875 11.1875 C-3.431875 9.6096875 -3.431875 9.6096875 -4 8 C-2.66666667 7.33333333 -1.33333333 6.66666667 0 6 C0 4.68 0 3.36 0 2 C0 1.34 0 0.68 0 0 Z " fill="#2AABF7" transform="translate(32,176)"/>
<path d="M0 0 C4.04224085 1.39588173 6.94148485 3.30564036 10.25 6 C11.12140625 6.70125 11.9928125 7.4025 12.890625 8.125 C15 10 15 10 16 12 C12.7 11.67 9.4 11.34 6 11 C6.33 10.34 6.66 9.68 7 9 C7 8.34 7 7.68 7 7 C5.68 7 4.36 7 3 7 C3.33 6.01 3.66 5.02 4 4 C2.68 2.68 1.36 1.36 0 0 Z M-14 1 C-13.67 1.99 -13.34 2.98 -13 4 C-12.236875 3.95875 -11.47375 3.9175 -10.6875 3.875 C-8 4 -8 4 -5 6 C-3.34608154 6.39171753 -1.67654729 6.72057545 0 7 C1.66666667 7.33333333 3.33333333 7.66666667 5 8 C4.01 8.33 3.02 8.66 2 9 C2.474375 9.78375 2.94875 10.5675 3.4375 11.375 C4.33898023 12.88948678 5.21179485 14.4235897 6 16 C1.65974573 13.92141669 -2.45809461 11.44638714 -6.60351562 9.00976562 C-10.63283639 6.67653844 -14.6885813 4.76100201 -19 3 C-19 2.67 -19 2.34 -19 2 C-17.35 1.67 -15.7 1.34 -14 1 Z " fill="#36A1E4" transform="translate(150,37)"/>
<path d="M0 0 C1.32 0.66 2.64 1.32 4 2 C4 2.99 4 3.98 4 5 C4.99 5.33 5.98 5.66 7 6 C9 9 9 9 8.9375 11.5625 C8 14 8 14 5.4375 15.3125 C4.2309375 15.6528125 4.2309375 15.6528125 3 16 C3 15.01 3 14.02 3 13 C2.401875 12.773125 1.80375 12.54625 1.1875 12.3125 C-1.65550249 10.60669851 -2.70007475 9.03315891 -4 6 C-3.13609919 3.25122469 -2.04480351 2.04480351 0 0 Z " fill="#27A9F9" transform="translate(176,63)"/>
<path d="M0 0 C2.31 0.33 4.62 0.66 7 1 C7.33 2.32 7.66 3.64 8 5 C8.99 5 9.98 5 11 5 C11 5.66 11 6.32 11 7 C11.99 7.33 12.98 7.66 14 8 C14.33 8.66 14.66 9.32 15 10 C18.02934491 10.65772428 18.02934491 10.65772428 21 11 C20.34 12.32 19.68 13.64 19 15 C18.67 14.34 18.34 13.68 18 13 C16.00712388 12.6074996 16.00712388 12.6074996 13.6875 12.5 C10.29377299 12.27562135 7.96866291 11.68473319 5 10 C5 9.01 5 8.02 5 7 C4.34 7 3.68 7 3 7 C3 6.34 3 5.68 3 5 C0.525 4.01 0.525 4.01 -2 3 C-1.34 2.01 -0.68 1.02 0 0 Z " fill="#27AAFA" transform="translate(132,31)"/>
<path d="M0 0 C1.67542976 0.28604898 3.34385343 0.61781233 5 1 C4.67 1.99 4.34 2.98 4 4 C5.32 4 6.64 4 8 4 C10.25 5 10.25 5 12 6 C12 6.66 12 7.32 12 8 C12.66 8.33 13.32 8.66 14 9 C13.01 10.32 12.02 11.64 11 13 C11 12.34 11 11.68 11 11 C10.34 11 9.68 11 9 11 C9 11.66 9 12.32 9 13 C5.60807637 12.40716379 3.7892243 11.23256811 1.25 8.9375 C0.63640625 8.38964844 0.0228125 7.84179688 -0.609375 7.27734375 C-1.06828125 6.85582031 -1.5271875 6.43429688 -2 6 C-1.125 1.125 -1.125 1.125 0 0 Z " fill="#28A9F8" transform="translate(154,43)"/>
<path d="M0 0 C0.99 0.33 1.98 0.66 3 1 C4.32 1 5.64 1 7 1 C5.33333333 4.33333333 3.66666667 7.66666667 2 11 C-0.31 11 -2.62 11 -5 11 C-5.75 8.75 -5.75 8.75 -6 6 C-4.1875 3.6875 -4.1875 3.6875 -2 2 C-1.34 2 -0.68 2 0 2 C0 1.34 0 0.68 0 0 Z " fill="#26AAF8" transform="translate(31,57)"/>
<path d="M0 0 C0.66 0 1.32 0 2 0 C1.87882812 0.58265625 1.75765625 1.1653125 1.6328125 1.765625 C1.07239195 4.50737477 0.53695218 7.25356217 0 10 C-0.19078125 10.90363281 -0.3815625 11.80726562 -0.578125 12.73828125 C-2.95400979 25.00802911 -2.4955513 37.63499548 -1 50 C-5.78073908 45.21926092 -4.25731939 35.73349009 -4.29516602 29.38916016 C-4.31227511 27.40113138 -4.35615598 25.41339148 -4.40039062 23.42578125 C-4.45603713 14.87334103 -3.27908271 7.91093759 0 0 Z " fill="#3E9CD6" transform="translate(17,91)"/>
<path d="M0 0 C-1.13447571 1.48445129 -1.13447571 1.48445129 -3 3 C-5.63859558 3.32279968 -5.63859558 3.32279968 -8.84838867 3.2487793 C-10.0494072 3.22853195 -11.25042572 3.20828461 -12.48783875 3.18742371 C-13.78478165 3.15006607 -15.08172455 3.11270844 -16.41796875 3.07421875 C-17.75886872 3.04618083 -19.09979751 3.01949092 -20.44075012 2.99409485 C-23.96747454 2.92367918 -27.49350994 2.83495625 -31.01971436 2.74243164 C-34.61902575 2.65122517 -38.21868753 2.57731431 -41.81835938 2.50195312 C-48.87934548 2.35157413 -55.93974877 2.18185431 -63 2 C-63 1.67 -63 1.34 -63 1 C-55.52410154 0.86910509 -48.04819504 0.73867968 -40.57227802 0.60884857 C-37.10067153 0.54854399 -33.62906797 0.48807956 -30.1574707 0.42724609 C-26.16358248 0.3572675 -22.16968234 0.28799088 -18.17578125 0.21875 C-16.93290848 0.19687622 -15.69003571 0.17500244 -14.40950012 0.15246582 C-13.24867416 0.13244507 -12.08784821 0.11242432 -10.8918457 0.09179688 C-9.36295464 0.06514954 -9.36295464 0.06514954 -7.80317688 0.03796387 C-5.20166977 0.00273125 -2.60170146 -0.00700208 0 0 Z " fill="#4299D1" transform="translate(155,103)"/>
<path d="M0 0 C1.12620351 4.50481405 1.12620351 4.50481405 -0.2578125 7.828125 C-0.55155762 8.54234619 -0.84530273 9.25656738 -1.14794922 9.99243164 C-1.47037598 10.7374292 -1.79280273 11.48242676 -2.125 12.25 C-2.4461377 13.00982178 -2.76727539 13.76964355 -3.09814453 14.55249023 C-5.31633388 19.69455597 -7.70741226 24.44848165 -11 29 C-11.33 29 -11.66 29 -12 29 C-12.1875 26.6875 -12.1875 26.6875 -12 24 C-10.5 22.3125 -10.5 22.3125 -9 21 C-9 20.34 -9 19.68 -9 19 C-8.34 19 -7.68 19 -7 19 C-6.34 15.7 -5.68 12.4 -5 9 C-4.34 9 -3.68 9 -3 9 C-2.01 6.03 -1.02 3.06 0 0 Z " fill="#399EDF" transform="translate(194,147)"/>
<path d="M0 0 C1.89685547 0.33064453 1.89685547 0.33064453 3.83203125 0.66796875 C5.10433594 0.88066406 6.37664062 1.09335937 7.6875 1.3125 C8.66332031 1.49167969 9.63914062 1.67085937 10.64453125 1.85546875 C10.64453125 2.18546875 10.64453125 2.51546875 10.64453125 2.85546875 C9.68933594 2.96503906 8.73414062 3.07460938 7.75 3.1875 C-0.19730437 4.16209465 -7.67050793 5.54072151 -15.35546875 7.85546875 C-16.68678384 8.19677364 -18.01946954 8.53298618 -19.35546875 8.85546875 C-19.35546875 8.19546875 -19.35546875 7.53546875 -19.35546875 6.85546875 C-18.36546875 6.85546875 -17.37546875 6.85546875 -16.35546875 6.85546875 C-16.02546875 5.86546875 -15.69546875 4.87546875 -15.35546875 3.85546875 C-14.74058594 3.81808594 -14.12570313 3.78070313 -13.4921875 3.7421875 C-12.27982422 3.64357422 -12.27982422 3.64357422 -11.04296875 3.54296875 C-10.24246094 3.48496094 -9.44195312 3.42695312 -8.6171875 3.3671875 C-6.26571931 3.07427102 -6.26571931 3.07427102 -5.01171875 1.26171875 C-3.35546875 -0.14453125 -3.35546875 -0.14453125 0 0 Z " fill="#39A8E0" transform="translate(87.35546875,32.14453125)"/>
<path d="M0 0 C4.18723179 3.51148257 8.13394584 7.13394584 12 11 C13.96996187 12.70730028 15.97780221 14.35402506 18 16 C14.26879511 16 12.21944311 14.81968524 9 13 C8.67 12.34 8.34 11.68 8 11 C7.195625 10.7525 6.39125 10.505 5.5625 10.25 C3 9 3 9 1.75 6.0625 C1.5025 5.051875 1.255 4.04125 1 3 C0.67 2.01 0.34 1.02 0 0 Z " fill="#35A3E1" transform="translate(32,176)"/>
<path d="M0 0 C0.99 0.33 1.98 0.66 3 1 C2.360625 1.86625 1.72125 2.7325 1.0625 3.625 C-0.97548296 6.9598812 -1.63433093 9.16047478 -2 13 C-3.32 12.34 -4.64 11.68 -6 11 C-6 6.63204596 -5.77237852 6.25341007 -3 3.25 C-2.443125 2.63640625 -1.88625 2.0228125 -1.3125 1.390625 C-0.6628125 0.70226563 -0.6628125 0.70226563 0 0 Z " fill="#26AAFB" transform="translate(43,44)"/>
<path d="M0 0 C0 0.66 0 1.32 0 2 C-6.71162938 2.88021369 -13.23405981 3.11381955 -20 3 C-20 2.34 -20 1.68 -20 1 C-13.30386804 0.202163 -6.74233419 -0.12910853 0 0 Z " fill="#38A3E1" transform="translate(116,208)"/>
<path d="M0 0 C0.66 0 1.32 0 2 0 C3.4631783 1.97440927 4.80713064 3.93238871 6.125 6 C6.49753906 6.57234375 6.87007812 7.1446875 7.25390625 7.734375 C8.17550408 9.15221782 9.08855821 10.57560725 10 12 C9.67 12.66 9.34 13.32 9 14 C8.34 14 7.68 14 7 14 C6.896875 13.401875 6.79375 12.80375 6.6875 12.1875 C5.91123545 9.71756736 4.92911079 8.67748765 3 7 C2.01 7.495 2.01 7.495 1 8 C0.67 5.36 0.34 2.72 0 0 Z " fill="#369EE4" transform="translate(22,162)"/>
<path d="M0 0 C0.66 0.33 1.32 0.66 2 1 C0.35 1.66 -1.3 2.32 -3 3 C-3 3.99 -3 4.98 -3 6 C-3.99 6 -4.98 6 -6 6 C-6 6.99 -6 7.98 -6 9 C-9 8 -9 8 -11 5 C-9.21289414 4.13633178 -7.4201535 3.28431406 -5.625 2.4375 C-4.62726562 1.96183594 -3.62953125 1.48617188 -2.6015625 0.99609375 C-1.74304687 0.66738281 -0.88453125 0.33867187 0 0 Z " fill="#339FE2" transform="translate(65,30)"/>
<path d="M0 0 C1.64574566 -0.02688151 3.29161413 -0.04634123 4.9375 -0.0625 C5.85402344 -0.07410156 6.77054687 -0.08570313 7.71484375 -0.09765625 C10 0 10 0 11 1 C13.32817964 1.36760731 15.6618385 1.70241581 18 2 C18 2.66 18 3.32 18 4 C11.73 3.34 5.46 2.68 -1 2 C-0.67 1.34 -0.34 0.68 0 0 Z " fill="#3EA4E4" transform="translate(106,33)"/>
<path d="M0 0 C0.66 0 1.32 0 2 0 C1.71682074 1.60568666 1.42312209 3.20952047 1.125 4.8125 C0.96257813 5.70582031 0.80015625 6.59914063 0.6328125 7.51953125 C0 10 0 10 -2 13 C-2.39013716 14.9896995 -2.73202649 16.99019869 -3 19 C-3.33 19 -3.66 19 -4 19 C-4.62621031 12.11168659 -2.35806067 6.41097745 0 0 Z " fill="#37A1DE" transform="translate(17,91)"/>
<path d="M0 0 C-2.10016623 1.17441535 -4.20458755 2.33964012 -6.3125 3.5 C-6.90740234 3.83386719 -7.50230469 4.16773438 -8.11523438 4.51171875 C-10.95828844 6.06825114 -12.70660988 7 -16 7 C-14.75 5 -14.75 5 -13 3 C-11.68 3 -10.36 3 -9 3 C-8.67 2.01 -8.34 1.02 -8 0 C-4.71303767 -0.79953138 -3.28976808 -1.09658936 0 0 Z " fill="#3A9EDD" transform="translate(66,42)"/>
<path d="M0 0 C4.00647751 1.3354925 4.75744636 3.52765887 7 7 C7.66 7.33 8.32 7.66 9 8 C9.40729228 10.32156597 9.74438677 12.6568787 10 15 C6.00887919 10.39486061 3.05543741 5.24516756 0 0 Z " fill="#419EDC" transform="translate(170,68)"/>
<path d="M0 0 C4.94151304 2.40016348 7.04331244 5.52273027 10 10 C8.68 10 7.36 10 6 10 C5.0234375 8.20963542 4.046875 6.41927083 3.0703125 4.62890625 C2.08589976 2.83381685 2.08589976 2.83381685 0 2 C0 1.34 0 0.68 0 0 Z " fill="#389BDF" transform="translate(166,49)"/>
<path d="M0 0 C0.66 0.66 1.32 1.32 2 2 C3.64991582 2.70710678 5.31562256 3.37943989 7 4 C7 4.66 7 5.32 7 6 C7.99 6 8.98 6 10 6 C10.33 6.99 10.66 7.98 11 9 C6.32894208 7.44298069 2.91294315 4.91552627 -1 2 C-0.67 1.34 -0.34 0.68 0 0 Z " fill="#3BA1E0" transform="translate(42,197)"/>
<path d="M0 0 C3.99500618 1.3697164 6.80009492 3.25722422 10 6 C7.69 6.66 5.38 7.32 3 8 C2.814375 6.8553125 2.814375 6.8553125 2.625 5.6875 C2.11897208 2.79732864 2.11897208 2.79732864 0 0 Z " fill="#389EDE" transform="translate(50,193)"/>
<path d="M0 0 C1.32 0.33 2.64 0.66 4 1 C1.14723863 3.93200474 -1.65079784 6.64315404 -5 9 C-3.50163895 5.88801935 -1.80066242 2.9465385 0 0 Z " fill="#3CA1EB" transform="translate(166,190)"/>
<path d="M0 0 C0.66 0 1.32 0 2 0 C2.99 3.3 3.98 6.6 5 10 C4.34 10.66 3.68 11.32 3 12 C2.49166409 10.75336669 1.99368855 9.50250613 1.5 8.25 C1.2215625 7.55390625 0.943125 6.8578125 0.65625 6.140625 C0 4 0 4 0 0 Z " fill="#3B9FDA" transform="translate(7,147)"/>
<path d="M0 0 C1.46067199 0.45082469 2.91848032 0.91093537 4.375 1.375 C5.18710938 1.63023438 5.99921875 1.88546875 6.8359375 2.1484375 C9 3 9 3 11 5 C9.02 5.33 7.04 5.66 5 6 C4.67 5.01 4.34 4.02 4 3 C1.98491642 2.26676204 1.98491642 2.26676204 0 2 C0 1.34 0 0.68 0 0 Z " fill="#369BDA" transform="translate(135,30)"/>
<path d="M0 0 C4.42857143 5.14285714 4.42857143 5.14285714 5 9 C3.68 9.33 2.36 9.66 1 10 C1.33 8.02 1.66 6.04 2 4 C1.34 4 0.68 4 0 4 C0 2.68 0 1.36 0 0 Z " fill="#30A2E1" transform="translate(185,72)"/>
<path d="M0 0 C0.66 0.33 1.32 0.66 2 1 C1.34 3.64 0.68 6.28 0 9 C-2 8 -2 8 -2.8125 6.1875 C-3 4 -3 4 -1.5625 1.75 C-1.046875 1.1725 -0.53125 0.595 0 0 Z " fill="#3EA5DC" transform="translate(48,74)"/>
<path d="M0 0 C1.31611677 0.95336021 2.62778961 1.91285774 3.9375 2.875 C4.66839844 3.40867188 5.39929687 3.94234375 6.15234375 4.4921875 C8 6 8 6 9 8 C5.9168649 6.80100302 2.93720508 5.52299523 0 4 C0 2.68 0 1.36 0 0 Z " fill="#419BD6" transform="translate(41,185)"/>
<path d="M0 0 C-0.66 1.32 -1.32 2.64 -2 4 C-4.97 3.505 -4.97 3.505 -8 3 C-5.53387212 -0.1151089 -3.89156016 -0.31553191 0 0 Z " fill="#2FA3EB" transform="translate(35,64)"/>
<path d="M0 0 C2.875 -0.125 2.875 -0.125 6 0 C6.66 0.66 7.32 1.32 8 2 C7.01 2.33 6.02 2.66 5 3 C4.67 3.99 4.34 4.98 4 6 C0 1.125 0 1.125 0 0 Z " fill="#2BA3EA" transform="translate(142,35)"/>
<path d="M0 0 C3.63094642 2.64960955 5.89851796 5.01824456 8 9 C3.7257442 7.4169423 1.73468206 4.49431596 -1 1 C-0.67 0.67 -0.34 0.34 0 0 Z " fill="#39A4E1" transform="translate(33,189)"/>
<path d="M0 0 C4.29 0 8.58 0 13 0 C13 0.33 13 0.66 13 1 C12.31292969 1.06058594 11.62585938 1.12117187 10.91796875 1.18359375 C9.56638672 1.30927734 9.56638672 1.30927734 8.1875 1.4375 C6.84751953 1.55931641 6.84751953 1.55931641 5.48046875 1.68359375 C2.87256441 1.93489767 2.87256441 1.93489767 0 3 C0 2.01 0 1.02 0 0 Z " fill="#35A7F4" transform="translate(96,217)"/>
<path d="M0 0 C1.5 1.375 1.5 1.375 3 3 C3 3.66 3 4.32 3 5 C1.02 5.66 -0.96 6.32 -3 7 C-1.125 2.25 -1.125 2.25 0 0 Z " fill="#36A0E0" transform="translate(179,160)"/>
<path d="M0 0 C-1.1875 1.5 -1.1875 1.5 -3 3 C-5.6875 3.1875 -5.6875 3.1875 -8 3 C-8.33 2.34 -8.66 1.68 -9 1 C-5.92677456 0.08941469 -3.19902639 -0.08886184 0 0 Z " fill="#3D9ADE" transform="translate(155,103)"/>
<path d="M0 0 C0.66 0.33 1.32 0.66 2 1 C0.68 2.65 -0.64 4.3 -2 6 C-3.32 5.67 -4.64 5.34 -6 5 C-4.02 3.35 -2.04 1.7 0 0 Z " fill="#379BD9" transform="translate(43,42)"/>
</svg>
