<?xml version="1.0" encoding="UTF-8"?>
<svg version="1.1" xmlns="http://www.w3.org/2000/svg" width="1147" height="217">
<path d="M0 0 C2.78437803 2.20160124 5.25143943 4.54564175 7.6875 7.125 C10.47144233 6.03130837 11.62677543 5.21178965 13.37109375 2.71875 C16.20737843 -0.45712357 19.04115834 -1.49082338 23 -2.6875 C23.63873047 -2.90341797 24.27746094 -3.11933594 24.93554688 -3.34179688 C35.22345412 -6.62517153 45.86462005 -4.05000354 55.44921875 0.41015625 C64.15933293 5.71903739 68.81882395 14.5615703 71.6875 24.125 C72.1888023 28.25602466 72.15715057 32.32024141 72.078125 36.4765625 C72.07246521 37.61660736 72.06680542 38.75665222 72.06097412 39.9312439 C72.03875659 43.53794067 71.98858613 47.1436084 71.9375 50.75 C71.91741617 53.20962097 71.89916872 55.66925767 71.8828125 58.12890625 C71.84235799 64.12831024 71.76403487 70.1255165 71.6875 76.125 C63.4375 76.125 55.1875 76.125 46.6875 76.125 C46.65011719 72.88558594 46.61273437 69.64617187 46.57421875 66.30859375 C46.52795619 63.15772906 46.47673965 60.00698094 46.42504883 56.85620117 C46.39187448 54.6730055 46.3638194 52.48972561 46.34106445 50.30639648 C46.30738096 47.16093183 46.25505724 44.01623376 46.19921875 40.87109375 C46.19282883 39.9010289 46.1864389 38.93096405 46.17985535 37.9315033 C46.05796548 32.26364004 45.46621423 28.11083791 42.6875 23.125 C38.7121622 20.38643396 35.47608699 19.4266644 30.6875 20.125 C26.70372858 22.27010769 24.34247612 23.91182128 22.6875 28.125 C22.3708452 30.41721228 22.3708452 30.41721228 22.38452148 32.87768555 C22.36787949 33.81513107 22.35123749 34.7525766 22.33409119 35.71842957 C22.32567703 36.722715 22.31726288 37.72700043 22.30859375 38.76171875 C22.29159927 39.7969014 22.2746048 40.83208405 22.25709534 41.89863586 C22.20397819 45.20319541 22.16365916 48.50774213 22.125 51.8125 C22.08112702 55.12790679 22.03449965 58.44321442 21.98219299 61.75849915 C21.9501392 63.82172711 21.92327969 65.88504321 21.90196228 67.94841003 C21.88847244 68.87639908 21.8749826 69.80438812 21.86108398 70.76049805 C21.84681618 71.99149483 21.84681618 71.99149483 21.83226013 73.24736023 C21.6875 75.125 21.6875 75.125 20.6875 76.125 C18.83380389 76.21237645 16.97682459 76.23198153 15.12109375 76.22265625 C13.99638672 76.21943359 12.87167969 76.21621094 11.71289062 76.21289062 C10.52888672 76.20451172 9.34488281 76.19613281 8.125 76.1875 C6.93712891 76.18298828 5.74925781 76.17847656 4.52539062 76.17382812 C1.57937774 76.16199675 -1.36653681 76.14551287 -4.3125 76.125 C-4.31836624 75.5347554 -4.32423248 74.9445108 -4.33027649 74.33638 C-4.39425668 68.18788736 -4.4786884 62.0399159 -4.57495117 55.8918457 C-4.60818634 53.59797033 -4.63622264 51.30401346 -4.65893555 49.01000977 C-4.69250674 45.71074727 -4.74482535 42.4122307 -4.80078125 39.11328125 C-4.80717117 38.08914627 -4.8135611 37.06501129 -4.82014465 36.00984192 C-4.91001364 29.05365621 -4.91001364 29.05365621 -8.3125 23.125 C-13.61302112 19.70910861 -17.50394747 19.58489374 -23.5625 20.75 C-26.4867074 21.86059544 -26.4867074 21.86059544 -27.45849609 24.51806641 C-28.62296161 29.43625209 -28.66943912 34.17187816 -28.7265625 39.2109375 C-28.74592865 40.26785797 -28.7652948 41.32477844 -28.7852478 42.41372681 C-28.84482914 45.77573684 -28.89134342 49.13778151 -28.9375 52.5 C-28.97569948 54.78517084 -29.01475236 57.07032758 -29.0546875 59.35546875 C-29.15211266 64.94523744 -29.23185262 70.53486349 -29.3125 76.125 C-37.5625 76.125 -45.8125 76.125 -54.3125 76.125 C-55.2988105 73.16606851 -55.4204478 71.3248481 -55.38183594 68.24560547 C-55.37142273 67.25382294 -55.36100952 66.26204041 -55.35028076 65.24020386 C-55.33265686 64.16835846 -55.31503296 63.09651306 -55.296875 61.9921875 C-55.27213104 60.33257492 -55.27213104 60.33257492 -55.24688721 58.63943481 C-55.20936152 56.29407952 -55.16881196 53.94877098 -55.12548828 51.60351562 C-55.06311547 48.03521056 -55.02143615 44.46704372 -54.98046875 40.8984375 C-54.94138631 38.61716517 -54.90106104 36.33591374 -54.859375 34.0546875 C-54.84984802 32.99498749 -54.84032104 31.93528748 -54.83050537 30.84347534 C-54.62670131 21.89615622 -53.32435846 14.48639122 -47 7.8125 C-46.26136719 7.01199219 -45.52273438 6.21148437 -44.76171875 5.38671875 C-39.67364147 0.68815935 -34.9965392 -1.59647061 -28.375 -3.125 C-27.35889648 -3.38410156 -27.35889648 -3.38410156 -26.32226562 -3.6484375 C-16.83324697 -5.9410863 -8.50251184 -4.81274255 0 0 Z " fill="#E7EBED" transform="translate(720.3125,89.875)"/>
<path d="M0 0 C1.00804687 0.44085938 2.01609375 0.88171875 3.0546875 1.3359375 C9.57414004 4.33853523 14.57968997 7.86873652 19.74609375 12.8515625 C21.97926448 15.05111234 21.97926448 15.05111234 24.5390625 16.98046875 C40.36009858 29.96376344 50.02586238 53.03927517 52 73 C53.05339805 90.65363969 49.68266219 105.74004655 43 122 C42.68289062 122.78117188 42.36578125 123.56234375 42.0390625 124.3671875 C32.91587877 144.53863043 13.49391683 159.64518193 -6.4453125 168.046875 C-22.49997839 174.03668919 -39.0726003 175.06088834 -55.875 172.25 C-56.89980469 172.09273437 -57.92460938 171.93546875 -58.98046875 171.7734375 C-76.46604106 168.88509646 -94.18186566 159.3430549 -106 146 C-106 145.34 -106 144.68 -106 144 C-106.57234375 143.77441406 -107.1446875 143.54882812 -107.734375 143.31640625 C-120.25601299 136.0409028 -126.73567131 115.33612797 -130.30859375 102.24609375 C-135.68746758 76.99273696 -129.9525081 51.57078642 -116 30 C-113.21051732 26.42815824 -110.2143981 23.18976669 -107 20 C-106.49210937 19.45601562 -105.98421875 18.91203125 -105.4609375 18.3515625 C-103.19110091 15.94247214 -101.0768236 14.25352073 -98 13 C-98 12.34 -98 11.68 -98 11 C-71.74972345 -13.36079649 -30.84409864 -14.371501 0 0 Z M-79.28271484 12.03173828 C-80.76843262 12.86943472 -82.28250823 13.65645819 -83.80078125 14.43359375 C-100.26435685 23.28243742 -112.52127241 41.43443041 -118 59 C-118.94983701 62.98403859 -119.54050923 66.9324624 -120 71 C-120.1340625 71.99386719 -120.268125 72.98773438 -120.40625 74.01171875 C-122.95800246 97.12247685 -115.80344714 117.25342311 -101.50390625 135.1875 C-88.02367328 151.28606759 -69.34842115 159.67115746 -48.8125 162.6875 C-28.80592504 164.32738319 -9.29078171 159.96065497 7 148 C7.76441406 147.46761719 8.52882812 146.93523437 9.31640625 146.38671875 C24.29431034 135.47238516 33.87986941 119.68000896 39 102 C39.22300781 101.26652344 39.44601563 100.53304687 39.67578125 99.77734375 C44.87652492 79.15126513 39.63419561 57.86466164 29 40 C19.99058215 25.6717692 8.76480151 16.75251378 -6 9 C-7.03253906 8.44957031 -8.06507813 7.89914063 -9.12890625 7.33203125 C-17.7001139 3.26696615 -26.65471887 2.58283823 -36 2 C-37.06347656 1.9278125 -38.12695312 1.855625 -39.22265625 1.78125 C-53.98022384 1.29406758 -66.57824081 4.81623575 -79.28271484 12.03173828 Z " fill="#2AA4F1" transform="translate(159,35)"/>
<path d="M0 0 C9.87529223 10.46016148 14.05021849 23.45648813 13.76855469 37.65234375 C13.22878528 50.24317545 8.65410381 61.23339302 0.375 70.8125 C-19.8514608 89.12807272 -45.24486005 83.8125 -71.625 83.8125 C-71.625 51.8025 -71.625 19.7925 -71.625 -13.1875 C-16.13154416 -15.03728186 -16.13154416 -15.03728186 0 0 Z M-46.625 10.8125 C-46.71819449 12.3473297 -46.742458 13.88642082 -46.73852539 15.42407227 C-46.73844986 16.40501358 -46.73837433 17.3859549 -46.73829651 18.3966217 C-46.73313522 19.4632756 -46.72797394 20.5299295 -46.72265625 21.62890625 C-46.7212413 22.7150975 -46.71982635 23.80128876 -46.71836853 24.9203949 C-46.71275048 28.40529075 -46.70019492 31.89012342 -46.6875 35.375 C-46.68248733 37.73111887 -46.67792402 40.08723874 -46.67382812 42.44335938 C-46.66277519 48.23309464 -46.64601951 54.02279281 -46.625 59.8125 C-44.06502294 59.84130398 -41.50537394 59.86232229 -38.9453125 59.87890625 C-37.86503784 59.89226013 -37.86503784 59.89226013 -36.76293945 59.90588379 C-30.45225941 59.93651816 -24.79472878 59.58951902 -19.859375 55.265625 C-14.37218501 49.24569811 -11.61192823 42.96928144 -11.625 34.8125 C-12.57074963 26.10642125 -15.15892565 20.80544696 -21.625 14.8125 C-22.223125 14.255625 -22.82125 13.69875 -23.4375 13.125 C-28.09596956 10.32991827 -42.27755598 6.46505598 -46.625 10.8125 Z " fill="#E7ECEE" transform="translate(877.625,82.1875)"/>
<path d="M0 0 C0 7.59 0 15.18 0 23 C-14.73214286 22.0625 -14.73214286 22.0625 -19.8125 21.4375 C-24.59913028 20.94594369 -29.37925002 20.82030314 -34.1875 20.75 C-35.32892456 20.71797485 -35.32892456 20.71797485 -36.4934082 20.68530273 C-41.74034816 20.6538085 -45.30875041 21.63884126 -50 24 C-49.59370217 26.47118784 -49.59370217 26.47118784 -48 29 C-45.23148897 30.26006629 -42.76946959 31.16467122 -39.875 32 C-39.07328369 32.24999756 -38.27156738 32.49999512 -37.44555664 32.75756836 C-34.9694797 33.5259052 -32.48669108 34.26681475 -30 35 C-5.83378007 42.16093928 -5.83378007 42.16093928 0 51 C3.51689747 59.20609409 3.25125656 69.80704773 -0.0390625 78.078125 C-3.96851771 85.93703542 -11.17662895 90.36208711 -19.3359375 93.1328125 C-32.14355972 96.16404079 -46.18024705 95.23529168 -59.25 94.625 C-60.00716309 94.59422363 -60.76432617 94.56344727 -61.54443359 94.53173828 C-62.27742676 94.49290527 -63.01041992 94.45407227 -63.765625 94.4140625 C-64.73677246 94.36693115 -64.73677246 94.36693115 -65.72753906 94.31884766 C-68.88263752 93.87615765 -71.93658098 92.87526258 -75 92 C-75 84.08 -75 76.16 -75 68 C-73.03417969 68.144375 -71.06835938 68.28875 -69.04296875 68.4375 C-67.10003639 68.57677831 -65.15710178 68.71602674 -63.21411133 68.85449219 C-61.23434117 68.99663687 -59.25486091 69.14280109 -57.27539062 69.2890625 C-39.51884802 70.59386746 -39.51884802 70.59386746 -22 68 C-24.36615795 62.67614462 -27.83806128 61.066698 -33 59 C-36.12441001 57.93887962 -39.11709619 57.11685492 -42.390625 56.68359375 C-50.86782469 55.5062049 -62.51507411 52.03245856 -68 45 C-68 44.34 -68 43.68 -68 43 C-68.99 42.67 -69.98 42.34 -71 42 C-75.25090482 34.29434644 -76.44640012 25.84551056 -74.33984375 17.33203125 C-71.42376482 8.98775344 -66.63121582 4.05502959 -58.75 0.1875 C-43.21190276 -6.19571833 -15.40196803 -7.70098402 0 0 Z " fill="#E6EAEC" transform="translate(360,72)"/>
<path d="M0 0 C8.77853115 6.7957355 14.44176617 16.67777363 16.484375 27.55859375 C16.86790856 31.2443513 17.05006739 34.88223413 17.16601562 38.58374023 C17.48774232 48.79762739 18.73161857 58.329468 20.875 68.3125 C21.205 70.2925 21.535 72.2725 21.875 74.3125 C13.625 74.3125 5.375 74.3125 -3.125 74.3125 C-4.445 71.3425 -5.765 68.3725 -7.125 65.3125 C-7.82625 66.240625 -8.5275 67.16875 -9.25 68.125 C-12.51062577 72.44053411 -16.59718561 74.0743783 -21.859375 74.89453125 C-23.19675485 74.98945595 -24.53556649 75.06572594 -25.875 75.125 C-26.58019775 75.15996582 -27.28539551 75.19493164 -28.01196289 75.23095703 C-37.87945772 75.59018581 -44.82350255 73.56610467 -53.125 68.3125 C-53.125 67.6525 -53.125 66.9925 -53.125 66.3125 C-54.0840625 65.9103125 -54.0840625 65.9103125 -55.0625 65.5 C-57.125 64.3125 -57.125 64.3125 -58.125 61.3125 C-59.115 60.9825 -60.105 60.6525 -61.125 60.3125 C-62.6953125 57.51171875 -62.6953125 57.51171875 -64.25 54 C-64.76820313 52.84886719 -65.28640625 51.69773438 -65.8203125 50.51171875 C-69.83389244 40.6700362 -69.93493087 27.47493913 -66 17.625 C-65.09752257 15.8250589 -64.14258053 14.04996463 -63.125 12.3125 C-62.49078125 11.19488281 -62.49078125 11.19488281 -61.84375 10.0546875 C-55.15813456 -0.16808495 -44.51008602 -3.6801456 -33.140625 -6.05859375 C-22.48636186 -7.927585 -9.29431937 -5.75286319 0 0 Z M-41.125 24.3125 C-43.7695462 29.72752317 -44.1200082 35.741806 -42.5078125 41.52734375 C-40.55414999 46.16945335 -38.12535879 48.74344903 -33.46484375 50.6875 C-27.42408071 52.30105941 -21.41096755 52.20690902 -15.625 49.75 C-12.51427524 47.91416243 -10.69635327 45.97147999 -9.5234375 42.4375 C-8.45479422 36.7380692 -8.41391979 31.37089007 -10.3125 25.875 C-13.39340316 21.51924036 -16.98402486 18.78135004 -22.125 17.3125 C-29.60834952 16.61959727 -35.80190737 18.98940737 -41.125 24.3125 Z " fill="#E6EBED" transform="translate(635.125,91.6875)"/>
<path d="M0 0 C4.4355472 4.13201086 7.56809695 8.56494325 7.97265625 14.7578125 C8.14099422 27.83206182 8.14099422 27.83206182 4.76953125 32.6484375 C-5.20807291 41.31191818 -14.18346262 44.8253474 -27.23046875 44.8359375 C-28.02453125 44.84818359 -28.81859375 44.86042969 -29.63671875 44.87304688 C-33.95994255 44.88385493 -37.29061593 44.65808017 -41.23046875 42.6484375 C-38.70707145 46.43353344 -37.62889438 46.63304603 -33.23046875 47.6484375 C-29.51791383 47.90516459 -25.82520284 47.88396118 -22.10546875 47.8359375 C-21.08316162 47.82949219 -20.06085449 47.82304687 -19.00756836 47.81640625 C-12.02710923 47.74535267 -5.17232325 47.40918868 1.76953125 46.6484375 C1.76953125 54.5684375 1.76953125 62.4884375 1.76953125 70.6484375 C-13.37125748 74.43363468 -36.03419217 77.27473518 -50.29296875 69.0390625 C-57.0091615 64.21856932 -62.73178156 59.20560184 -66.23046875 51.6484375 C-66.78734375 50.4728125 -67.34421875 49.2971875 -67.91796875 48.0859375 C-71.94105483 37.54928347 -70.90854741 26.15303016 -67.23046875 15.6484375 C-65.8296972 12.73761434 -64.17352593 10.22242992 -62.23046875 7.6484375 C-61.823125 7.04386719 -61.41578125 6.43929687 -60.99609375 5.81640625 C-54.70882503 -2.67140652 -44.33668979 -5.69709781 -34.43359375 -7.90625 C-22.82308698 -9.52039362 -9.49706701 -7.1545782 0 0 Z M-36.48046875 19.1484375 C-37.3725 19.6125 -38.26453125 20.0765625 -39.18359375 20.5546875 C-39.8590625 20.915625 -40.53453125 21.2765625 -41.23046875 21.6484375 C-37.77601013 25.10289612 -34.01781247 24.80614656 -29.29296875 24.8359375 C-28.27332031 24.85011719 -27.25367188 24.86429688 -26.203125 24.87890625 C-23.12459713 24.64022932 -20.97361934 24.04700265 -18.23046875 22.6484375 C-17.90046875 21.9884375 -17.57046875 21.3284375 -17.23046875 20.6484375 C-17.89046875 19.6584375 -18.55046875 18.6684375 -19.23046875 17.6484375 C-25.65998368 16.50771711 -30.55244288 16.02842388 -36.48046875 19.1484375 Z " fill="#E6EBED" transform="translate(553.23046875,93.3515625)"/>
<path d="M0 0 C8.19620288 7.4743782 12.07042955 17.712225 13.0546875 28.5390625 C13.38077076 40.2418283 9.66010307 52.01955148 1.625 60.75 C-10.18759525 71.53196613 -24.31692084 72.36036247 -39.53125 71.73828125 C-49.41502971 70.38652903 -58.5333517 64.8217068 -64.72265625 57.05859375 C-72.42249409 45.58070214 -73.49157632 34.42170155 -72.1875 20.875 C-69.40601279 10.02719989 -62.44838625 0.87095725 -52.82421875 -4.921875 C-49.37835987 -6.49420765 -45.84554742 -7.5019952 -42.1875 -8.4375 C-41.52322998 -8.60902588 -40.85895996 -8.78055176 -40.17456055 -8.95727539 C-25.80319052 -12.34573332 -12.02805144 -8.01870096 0 0 Z M-44.1875 19.875 C-47.65233167 25.07224751 -47.96121216 30.81301114 -46.796875 36.92578125 C-45.63136701 40.89299114 -44.10232895 43.4077974 -40.75 45.875 C-35.44742991 48.7460048 -30.05065158 48.85088026 -24.1875 47.875 C-19.81258484 46.22303204 -17.04953148 43.97947783 -14.1875 40.3125 C-12.32215019 33.90036001 -11.97080132 27.49558177 -14.8125 21.375 C-19.21347256 16.74239731 -23.39751842 14.21762932 -29.75 13.4375 C-35.37396515 13.47923629 -39.83078641 16.54672995 -44.1875 19.875 Z " fill="#E6EBED" transform="translate(970.1875,95.125)"/>
<path d="M0 0 C2.97 0.495 2.97 0.495 6 1 C6 8.92 6 16.84 6 25 C0.62564366 24.4028493 -4.61359376 23.76078447 -9.9375 22.9375 C-18.63493079 21.74425492 -27.2374852 21.81932959 -36 22 C-35.67 22.66 -35.34 23.32 -35 24 C-32.61704704 24.70502024 -32.61704704 24.70502024 -29.71484375 25.18359375 C-28.62623047 25.38919922 -27.53761719 25.59480469 -26.41601562 25.80664062 C-24.69415039 26.11891602 -24.69415039 26.11891602 -22.9375 26.4375 C-0.6299399 30.5039155 -0.6299399 30.5039155 7.4375 39.8125 C9.41212388 43.66812336 9.38754847 47.7531498 9.4375 52 C9.44773193 52.67651611 9.45796387 53.35303223 9.46850586 54.05004883 C9.36958231 59.75233452 8.17080254 64.44769503 4.421875 68.85546875 C2.63916888 70.27580236 0.84570245 71.66225347 -1 73 C-1.99 73.7425 -2.98 74.485 -4 75.25 C-18.93260102 83.2675039 -45.27492037 79.93126991 -61 76 C-61 68.08 -61 60.16 -61 52 C-58.37611328 52.32484375 -58.37611328 52.32484375 -55.69921875 52.65625 C-53.36202013 52.9378402 -51.0247782 53.21907106 -48.6875 53.5 C-47.53958984 53.64308594 -46.39167969 53.78617188 -45.20898438 53.93359375 C-35.31763633 55.11046802 -25.86351821 55.48883294 -16 54 C-19.10844395 51.92770403 -20.97822507 51.44565394 -24.59375 50.73828125 C-25.7075 50.50560547 -26.82125 50.27292969 -27.96875 50.03320312 C-30.28912387 49.55963125 -32.61203733 49.09830645 -34.9375 48.65039062 C-44.22965438 46.67367659 -53.59650978 43.32243445 -59 35 C-61.65413035 27.2813556 -61.62480787 19.30574086 -58.75 11.6875 C-52.7185608 2.42493266 -44.65645798 -0.00835672 -34.40625 -2.203125 C-22.61476492 -4.47849734 -11.58709089 -2.270364 0 0 Z " fill="#E7ECEE" transform="translate(1126,88)"/>
<path d="M0 0 C0 8.25 0 16.5 0 25 C-10 23 -10 23 -14 22 C-22.06194497 21.51702634 -29.731951 21.08643516 -37 25 C-40.53446059 28.53446059 -41.14630189 32.44733014 -41.25 37.3125 C-41.14472802 41.88431175 -40.59543785 45.10684322 -38 49 C-26.29812963 56.44864818 -12.65492499 52.26655373 0 50 C0 58.25 0 66.5 0 75 C-12.78238065 80.11295226 -32.41376628 80.08122478 -45.3203125 75.10546875 C-55.4221584 70.12494194 -62.28430924 62.1191943 -66.16015625 51.6640625 C-66.43730469 50.78492188 -66.71445312 49.90578125 -67 49 C-67.19851563 48.37867188 -67.39703125 47.75734375 -67.6015625 47.1171875 C-69.73547683 35.77815251 -68.42124161 23.72912974 -62.046875 14.02734375 C-46.91834062 -5.62388186 -22.41845787 -7.47281929 0 0 Z " fill="#E6EBED" transform="translate(1055,89)"/>
<path d="M0 0 C8.25 0 16.5 0 25 0 C25 6.93 25 13.86 25 21 C31.93 21 38.86 21 46 21 C46 28.92 46 36.84 46 45 C39.07 45 32.14 45 25 45 C25.0825 47.805 25.165 50.61 25.25 53.5 C25.26579102 54.36689453 25.28158203 55.23378906 25.29785156 56.12695312 C25.53753076 61.69255636 26.65031253 66.44260208 30 71 C36.72524125 74.91286764 43.35881118 74.23878715 51 74 C51 81.92 51 89.84 51 98 C25.1953138 98.90016347 25.1953138 98.90016347 16 92 C15.16339844 91.38511719 14.32679688 90.77023438 13.46484375 90.13671875 C5.9016508 84.00007927 1.54611123 76.6443629 0 67 C-0.27237729 61.85316907 -0.23340956 56.7141082 -0.1953125 51.5625 C-0.19157647 50.07177928 -0.18873229 48.58105609 -0.18673706 47.09033203 C-0.17914703 43.19082712 -0.15953904 39.29147419 -0.1373291 35.39202881 C-0.11677022 31.40330053 -0.10771399 27.41454739 -0.09765625 23.42578125 C-0.07628815 15.61711061 -0.04114452 7.80859607 0 0 Z " fill="#E5EAEC" transform="translate(372,68)"/>
<path d="M0 0 C1 1 1 1 1.11352539 3.22485352 C1.10828857 4.18319092 1.10305176 5.14152832 1.09765625 6.12890625 C1.09443359 7.16337891 1.09121094 8.19785156 1.08789062 9.26367188 C1.07532227 10.8965918 1.07532227 10.8965918 1.0625 12.5625 C1.05798828 13.65498047 1.05347656 14.74746094 1.04882812 15.87304688 C1.03699826 18.58208495 1.02051543 21.29101599 1 24 C-1.62626771 24.7405961 -3.40030606 24.98430172 -6.1875 24.875 C-11.85511762 25.06082353 -16.75292378 26.44433185 -21.4375 29.6875 C-25.36892687 35.50601176 -25.32000443 42.742996 -25.4140625 49.53125 C-25.43342865 50.40777222 -25.4527948 51.28429443 -25.4727478 52.18737793 C-25.53202621 54.95815622 -25.57871987 57.72897725 -25.625 60.5 C-25.66322751 62.39064207 -25.70228195 64.28126761 -25.7421875 66.171875 C-25.83922505 70.78115885 -25.91920248 75.3902891 -26 80 C-34.25 80 -42.5 80 -51 80 C-51.04612492 73.91663593 -51.08588646 67.83388843 -51.10986328 61.75048828 C-51.11986782 59.68471206 -51.13347571 57.6189498 -51.15087891 55.55322266 C-51.17537271 52.56930068 -51.18653886 49.58556732 -51.1953125 46.6015625 C-51.20563507 45.69072906 -51.21595764 44.77989563 -51.22659302 43.84146118 C-51.22799207 35.68992909 -50.34554042 27.74168195 -46.5 20.4375 C-46.0771875 19.61121094 -45.654375 18.78492187 -45.21875 17.93359375 C-44 16 -44 16 -42 15 C-41.55785156 14.22785156 -41.11570312 13.45570312 -40.66015625 12.66015625 C-36.42739057 5.87777171 -28.76834905 2.93957496 -21.29882812 1.03613281 C-14.20788323 -0.57384599 -7.18124557 -1.98630197 0 0 Z " fill="#E6EBED" transform="translate(481,86)"/>
<path d="M0 0 C0.95132309 -0.0049649 1.90264618 -0.00992981 2.88279724 -0.01504517 C6.03914098 -0.0296861 9.19543449 -0.03647145 12.35180664 -0.04199219 C14.53894554 -0.04774135 16.72608441 -0.05349911 18.91322327 -0.05926514 C23.5023726 -0.06978015 28.09150438 -0.07561977 32.68066406 -0.07910156 C38.57016138 -0.08459218 44.45942819 -0.10863031 50.34885311 -0.13707352 C54.86719956 -0.15566596 59.38549006 -0.16090365 63.90387154 -0.16243744 C66.07566147 -0.16547138 68.24745025 -0.17352468 70.4192028 -0.18662262 C73.45282595 -0.20361474 76.48588027 -0.20181976 79.51953125 -0.1953125 C80.42197571 -0.20452728 81.32442017 -0.21374207 82.25421143 -0.22323608 C83.0800322 -0.21766693 83.90585297 -0.21209778 84.75669861 -0.20635986 C85.47402129 -0.20782642 86.19134398 -0.20929298 86.93040371 -0.21080399 C89.43691358 0.28139988 90.34420542 1.09991009 91.82446289 3.16113281 C91.51196289 6.84863281 91.51196289 6.84863281 90.82446289 10.16113281 C86.80446714 11.5011314 82.92723126 11.31694372 78.73486328 11.32226562 C77.8045076 11.32723053 76.87415192 11.33219543 75.91560364 11.33731079 C72.83443465 11.35192987 69.75331712 11.3587333 66.67211914 11.36425781 C64.53364561 11.3700086 62.3951721 11.37576634 60.25669861 11.38153076 C55.77187866 11.39203942 51.28707663 11.39788327 46.80224609 11.40136719 C41.05075701 11.40685768 35.29950398 11.4308982 29.54808903 11.45933914 C25.13092857 11.47794428 20.71382529 11.48316995 16.29662895 11.48470306 C14.17590479 11.48773392 12.05518173 11.49577695 9.93449593 11.50888824 C6.97063225 11.52590741 4.00734949 11.52407877 1.04345703 11.51757812 C0.16488037 11.52679291 -0.71369629 11.53600769 -1.61889648 11.54550171 C-7.5946848 11.50436044 -7.5946848 11.50436044 -10.75172424 9.63885498 C-11.22158249 9.15120667 -11.69144073 8.66355835 -12.17553711 8.16113281 C-11.91992388 5.81801151 -11.58282938 3.48269878 -11.17553711 1.16113281 C-7.73838213 -0.55744468 -3.78317947 0.00467574 0 0 Z " fill="#27AAF9" transform="translate(79.175537109375,91.8388671875)"/>
<path d="M0 0 C0.8145163 -0.00845947 1.62903259 -0.01691895 2.4682312 -0.02563477 C3.80315865 -0.01652573 3.80315865 -0.01652573 5.16505432 -0.00723267 C6.10516357 -0.01248962 7.04527283 -0.01774658 8.01387024 -0.02316284 C11.1276654 -0.03638786 14.24095104 -0.02761509 17.35475159 -0.01748657 C19.51564635 -0.01950675 21.67654044 -0.02241772 23.83743286 -0.02618408 C28.36939475 -0.03061097 32.90117941 -0.02416518 37.43312073 -0.01016235 C43.24518431 0.00691939 49.056832 -0.00290313 54.86888027 -0.02087975 C59.33238869 -0.03171637 63.79579839 -0.02827159 68.25930977 -0.02049637 C70.40234997 -0.0184935 72.5453991 -0.02095665 74.68842888 -0.02793503 C77.68348319 -0.03554623 80.67786281 -0.02394915 83.67286682 -0.00723267 C85.00475792 -0.01634171 85.00475792 -0.01634171 86.36355591 -0.02563477 C92.3399201 0.03622092 92.3399201 0.03622092 95.53823853 1.7489624 C96.98365784 3.38095093 96.98365784 3.38095093 97.42115784 5.88095093 C96.90531648 8.82861581 96.29394856 9.55094048 93.98365784 11.38095093 C92.09239197 11.75847435 92.09239197 11.75847435 89.92262268 11.76190186 C89.09824707 11.77036133 88.27387146 11.7788208 87.42451477 11.78753662 C86.52364136 11.78146393 85.62276794 11.77539124 84.69459534 11.76913452 C83.74312622 11.77439148 82.7916571 11.77964844 81.81135559 11.7850647 C78.66029028 11.79828901 75.50972846 11.78951788 72.35865784 11.77938843 C70.17294721 11.78140846 67.98723724 11.7843193 65.80152893 11.78808594 C61.21829315 11.79251259 56.63523264 11.78606715 52.05201721 11.77206421 C46.17035471 11.75497227 40.28910287 11.76481161 34.40745544 11.7827816 C29.89337558 11.79361014 25.37939344 11.79017735 20.86531067 11.78239822 C18.69632418 11.78039365 16.52732887 11.78286448 14.35835266 11.78983688 C11.32956865 11.79743596 8.30145433 11.78586857 5.27272034 11.76913452 C4.37184692 11.77520721 3.47097351 11.78127991 2.5428009 11.78753662 C1.71842529 11.77907715 0.89404968 11.77061768 0.04469299 11.76190186 C-1.0293428 11.76020524 -1.0293428 11.76020524 -2.12507629 11.75847435 C-4.59295705 11.26585044 -5.48812629 10.34588223 -7.01634216 8.38095093 C-7.39134216 5.88095093 -7.39134216 5.88095093 -7.01634216 3.38095093 C-4.86510676 0.62103308 -3.46011175 0.00553283 0 0 Z " fill="#29A9F7" transform="translate(74.01634216308594,71.61904907226563)"/>
<path d="M0 0 C0.82437561 -0.00845947 1.64875122 -0.01691895 2.49810791 -0.02563477 C3.39898132 -0.01956207 4.29985474 -0.01348938 5.22802734 -0.00723267 C6.17949646 -0.01248962 7.13096558 -0.01774658 8.11126709 -0.02316284 C11.2623324 -0.03638716 14.41289423 -0.02761603 17.56396484 -0.01748657 C19.74967547 -0.0195066 21.93538544 -0.02241745 24.12109375 -0.02618408 C28.70432953 -0.03061074 33.28739004 -0.02416529 37.87060547 -0.01016235 C43.75226797 0.00692959 49.63351981 -0.00290975 55.51516724 -0.02087975 C60.0292471 -0.03170829 64.54322924 -0.02827549 69.05731201 -0.02049637 C71.22629851 -0.01849179 73.39529381 -0.02096262 75.56427002 -0.02793503 C78.59305403 -0.0355341 81.62116835 -0.02396671 84.64990234 -0.00723267 C85.55077576 -0.01330536 86.45164917 -0.01937805 87.37982178 -0.02563477 C88.20419739 -0.01717529 89.028573 -0.00871582 89.87792969 0 C90.59395355 0.00113108 91.30997742 0.00226215 92.04769897 0.00342751 C94.51557973 0.49605142 95.41074897 1.41601963 96.93896484 3.38095093 C97.31396484 5.88095093 97.31396484 5.88095093 96.93896484 8.38095093 C95.41670854 10.33392285 94.52037593 11.26375217 92.06610966 11.75847435 C91.35875896 11.75960543 90.65140825 11.7607365 89.92262268 11.76190186 C89.10810638 11.77036133 88.29359009 11.7788208 87.45439148 11.78753662 C86.11946404 11.77842758 86.11946404 11.77842758 84.75756836 11.76913452 C83.81745911 11.77439148 82.87734985 11.77964844 81.90875244 11.7850647 C78.79495728 11.79828972 75.68167164 11.78951694 72.56787109 11.77938843 C70.40697634 11.78140861 68.24608224 11.78431958 66.08518982 11.78808594 C61.55322793 11.79251283 57.02144327 11.78606703 52.48950195 11.77206421 C46.67743837 11.75498246 40.86579068 11.76480498 35.05374241 11.7827816 C30.59023399 11.79361822 26.12682429 11.79017344 21.66331291 11.78239822 C19.52027271 11.78039536 17.37722358 11.78285851 15.2341938 11.78983688 C12.23913949 11.79744808 9.24475987 11.785851 6.24975586 11.76913452 C5.36182846 11.77520721 4.47390106 11.78127991 3.55906677 11.78753662 C-2.41729742 11.72568093 -2.41729742 11.72568093 -5.61561584 10.01293945 C-7.06103516 8.38095093 -7.06103516 8.38095093 -7.49853516 5.88095093 C-6.71644189 1.41184657 -4.37377555 0.00690909 0 0 Z " fill="#27A9F9" transform="translate(74.06103515625,111.61904907226563)"/>
<path d="M0 0 C1.37871277 -0.00810448 1.37871277 -0.00810448 2.78527832 -0.01637268 C5.8240579 -0.02888127 8.86189391 -0.01235328 11.90063477 0.00561523 C14.01286366 0.00546028 16.12509285 0.00397195 18.23731995 0.00120544 C22.66501427 -0.00017955 27.09238507 0.01239552 31.52001953 0.03515625 C37.19409493 0.06352358 42.86763197 0.0608095 48.54174709 0.04806614 C52.90408419 0.04110863 57.26629701 0.04889941 61.62861824 0.06132317 C63.72058701 0.06583817 65.81256913 0.06617404 67.90453911 0.06225777 C70.82986633 0.05934534 73.75445378 0.07585503 76.6796875 0.09765625 C77.9757769 0.09090378 77.9757769 0.09090378 79.29804993 0.08401489 C83.93343938 0.14137332 87.20892902 0.37152289 90.90454102 3.50170898 C91.52954102 6.50170898 91.52954102 6.50170898 90.90454102 9.50170898 C86.53532441 13.1960547 82.20147787 12.92258435 76.77148438 12.87402344 C75.86034378 12.8776741 74.94920319 12.88132477 74.01045227 12.88508606 C71.00490564 12.89317849 67.9999003 12.8795932 64.99438477 12.86499023 C62.90361023 12.86447152 60.81283521 12.86498967 58.72206116 12.86650085 C54.34327907 12.86641119 49.96468134 12.85599304 45.5859375 12.83789062 C39.97129308 12.81518977 34.35691765 12.81466258 28.74223995 12.82140827 C24.42629096 12.82474828 20.11040337 12.81811777 15.79446602 12.80827904 C13.72399784 12.80442836 11.65352283 12.80327827 9.58305168 12.80486488 C6.69130283 12.80523541 3.79990003 12.79261906 0.90820312 12.77636719 C0.05147003 12.7788446 -0.80526306 12.78132202 -1.68795776 12.78387451 C-2.87176277 12.7732473 -2.87176277 12.7732473 -4.07948303 12.7624054 C-4.76249009 12.76035253 -5.44549715 12.75829966 -6.14920139 12.75618458 C-8.51655022 12.44665078 -10.08832911 11.79074065 -12.09545898 10.50170898 C-13.09545898 7.62670898 -13.09545898 7.62670898 -13.09545898 4.50170898 C-9.72735629 -0.58963075 -5.54939958 -0.06194715 0 0 Z " fill="#28A9F7" transform="translate(80.095458984375,130.498291015625)"/>
<path d="M0 0 C1.02801727 -0.0127597 2.05603455 -0.02551941 3.11520386 -0.03866577 C4.78705246 -0.04200424 4.78705246 -0.04200424 6.49267578 -0.04541016 C7.63455353 -0.05206696 8.77643127 -0.05872375 9.95291138 -0.06558228 C12.37223699 -0.07572278 14.79159066 -0.08039887 17.2109375 -0.08007812 C20.91599611 -0.08444673 24.61985973 -0.12074099 28.32470703 -0.15869141 C30.6723592 -0.16456009 33.02001704 -0.16852914 35.36767578 -0.17041016 C36.47819305 -0.18478119 37.58871033 -0.19915222 38.73287964 -0.21395874 C39.76720123 -0.20780548 40.80152283 -0.20165222 41.8671875 -0.1953125 C43.23047684 -0.19958755 43.23047684 -0.19958755 44.62130737 -0.20394897 C47.78949135 0.43765491 49.00498173 1.87089348 51.06298828 4.29052734 C49.18798828 9.16552734 49.18798828 9.16552734 48.06298828 10.29052734 C46.41671885 10.39964398 44.7658043 10.4395898 43.1159668 10.45166016 C41.53411339 10.46607147 41.53411339 10.46607147 39.92030334 10.48077393 C38.19849098 10.48714874 38.19849098 10.48714874 36.44189453 10.49365234 C35.27166245 10.49935242 34.10143036 10.50505249 32.89573669 10.51092529 C30.41495676 10.52039175 27.93416416 10.52691577 25.45336914 10.53076172 C21.64528652 10.54047683 17.83774116 10.57148944 14.02978516 10.60302734 C11.6254915 10.60955593 9.22119397 10.61480697 6.81689453 10.61865234 C5.09811852 10.63717255 5.09811852 10.63717255 3.34461975 10.65606689 C2.28689865 10.6530658 1.22917755 10.6500647 0.1394043 10.64697266 C-0.79467758 10.65061829 -1.72875946 10.65426392 -2.69114685 10.65802002 C-3.43228226 10.53674744 -4.17341766 10.41547485 -4.93701172 10.29052734 C-7.08616957 7.06679057 -7.31987975 6.02349061 -6.93701172 2.29052734 C-4.40453745 -0.24194693 -3.50947237 0.0294894 0 0 Z " fill="#29A9F7" transform="translate(73.93701171875,151.70947265625)"/>
<path d="M0 0 C0.33 0 0.66 0 1 0 C0.88637738 1.4800841 0.75877092 2.95910074 0.625 4.4375 C0.52058594 5.67306641 0.52058594 5.67306641 0.4140625 6.93359375 C0.27742188 7.61550781 0.14078125 8.29742187 0 9 C-0.66 9.33 -1.32 9.66 -2 10 C-2.40729228 12.32156597 -2.74438677 14.6568787 -3 17 C-3.66 17 -4.32 17 -5 17 C-5.495 19.475 -5.495 19.475 -6 22 C-7.11375 22.185625 -7.11375 22.185625 -8.25 22.375 C-10.90324709 22.9780107 -12.78778243 23.41984459 -15 25 C-15.35015049 26.66321482 -15.68197057 28.33034549 -16 30 C-18.0625 32.3125 -18.0625 32.3125 -20 34 C-19.67 34.66 -19.34 35.32 -19 36 C-18.96875 38.3359375 -18.96875 38.3359375 -20 41 C-22.29838215 42.91376129 -24.8557186 44.24554235 -27.5 45.625 C-28.22888428 46.01888916 -28.95776855 46.41277832 -29.70874023 46.81860352 C-34.66795263 49.44530266 -39.55279183 51.60510744 -45 53 C-46.60681641 53.49306641 -46.60681641 53.49306641 -48.24609375 53.99609375 C-52.14864999 55.03975343 -55.99820199 55.65735694 -60 56.125 C-60.67289063 56.21136719 -61.34578125 56.29773438 -62.0390625 56.38671875 C-66.4013158 56.91726307 -70.61771579 57.07988539 -75 57 C-75 56.34 -75 55.68 -75 55 C-74.38479492 54.9498877 -73.76958984 54.89977539 -73.13574219 54.84814453 C-70.33971386 54.61558163 -67.54492737 54.37042613 -64.75 54.125 C-63.78191406 54.04636719 -62.81382812 53.96773437 -61.81640625 53.88671875 C-60.88183594 53.80292969 -59.94726562 53.71914062 -58.984375 53.6328125 C-58.12553711 53.55949707 -57.26669922 53.48618164 -56.38183594 53.41064453 C-53.90474298 52.98357705 -52.20766905 52.16652001 -50 51 C-48.00889599 50.61709538 -46.00899487 50.27395385 -44 50 C-45.485 49.505 -45.485 49.505 -47 49 C-47 48.01 -47 47.02 -47 46 C-46.01 46 -45.02 46 -44 46 C-44 45.34 -44 44.68 -44 44 C-44.82757813 44.24556641 -44.82757813 44.24556641 -45.671875 44.49609375 C-48.26614007 45.05760414 -50.59835411 45.09739008 -53.25 45.0625 C-54.14203125 45.05347656 -55.0340625 45.04445312 -55.953125 45.03515625 C-56.62859375 45.02355469 -57.3040625 45.01195312 -58 45 C-58 44.67 -58 44.34 -58 44 C-57.35675781 43.84144531 -56.71351563 43.68289062 -56.05078125 43.51953125 C-36.29642959 38.41890693 -17.14912827 29.02081278 -5.86230469 11.20410156 C-3.71972455 7.55883293 -1.80708615 3.8238683 0 0 Z " fill="#2BA5F0" transform="translate(191,152)"/>
<path d="M0 0 C0 0.66 0 1.32 0 2 C-0.88260498 1.99476318 -1.76520996 1.98952637 -2.67456055 1.98413086 C-5.96395527 1.96704029 -9.25330247 1.95452616 -12.54272461 1.94506836 C-13.96363064 1.94005435 -15.38453156 1.93324148 -16.80541992 1.92456055 C-18.85336576 1.91236612 -20.9012431 1.90674228 -22.94921875 1.90234375 C-24.17987061 1.89710693 -25.41052246 1.89187012 -26.6784668 1.88647461 C-29.59219619 1.98606183 -32.17307326 2.32200678 -35 3 C-35 4.32 -35 5.64 -35 7 C-34.13721436 7.02505615 -33.27442871 7.0501123 -32.38549805 7.07592773 C-29.18176231 7.17111385 -25.97818463 7.27034444 -22.7746582 7.37231445 C-21.38864017 7.41560218 -20.00257094 7.45728164 -18.61645508 7.49731445 C-16.62308202 7.55516584 -14.62989435 7.61929776 -12.63671875 7.68359375 C-10.83787231 7.73858032 -10.83787231 7.73858032 -9.00268555 7.79467773 C-6 8 -6 8 -3 9 C0.09445623 9.19101582 3.18675597 9.31686779 6.28515625 9.42578125 C9 10 9 10 10.37109375 12.04296875 C10.57863281 12.68878906 10.78617187 13.33460937 11 14 C9.8140625 13.7834375 8.628125 13.566875 7.40625 13.34375 C-14.16637017 9.56214908 -34.01491247 9.38990792 -53.51171875 20.16015625 C-56.649354 21.81505681 -59.60795192 22.99436977 -63 24 C-62.67 23.34 -62.34 22.68 -62 22 C-61.34 22 -60.68 22 -60 22 C-60 21.34 -60 20.68 -60 20 C-59.67 19.67 -59.34 19.34 -59 19 C-59.66 18.67 -60.32 18.34 -61 18 C-60.01 17.34 -59.02 16.68 -58 16 C-58 15.01 -58 14.02 -58 13 C-59.98 13 -61.96 13 -64 13 C-47.90786295 -0.072378 -19.81298122 -5.70473753 0 0 Z " fill="#2EA3EE" transform="translate(135,27)"/>
<path d="M0 0 C1.93786085 0.47770523 3.87527674 0.95721571 5.8125 1.4375 C6.89144531 1.70433594 7.97039062 1.97117187 9.08203125 2.24609375 C11.0740843 2.76077412 13.04811524 3.34937175 15 4 C15 4.66 15 5.32 15 6 C15.804375 6.2475 16.60875 6.495 17.4375 6.75 C20 8 20 8 20.8125 10.125 C20.874375 10.74375 20.93625 11.3625 21 12 C20.01 12.33 19.02 12.66 18 13 C18 13.66 18 14.32 18 15 C14.625 14.75 14.625 14.75 11 14 C9.7734375 11.953125 9.7734375 11.953125 9 10 C8.16855469 10.01160156 7.33710938 10.02320313 6.48046875 10.03515625 C5.39378906 10.04417969 4.30710938 10.05320312 3.1875 10.0625 C2.10855469 10.07410156 1.02960938 10.08570313 -0.08203125 10.09765625 C-3 10 -3 10 -6 9 C-7.53203185 8.86445597 -9.06851871 8.77600683 -10.60546875 8.71875 C-11.95801758 8.66267578 -11.95801758 8.66267578 -13.33789062 8.60546875 C-14.27826172 8.57066406 -15.21863281 8.53585938 -16.1875 8.5 C-22.51649559 8.26083572 -28.72578019 7.88473135 -35 7 C-35 5.68 -35 4.36 -35 3 C-31.33675733 1.32424808 -28.4912835 0.75198566 -24.47265625 0.76953125 C-22.91321289 0.77243164 -22.91321289 0.77243164 -21.32226562 0.77539062 C-20.24654297 0.78763672 -19.17082031 0.79988281 -18.0625 0.8125 C-16.99064453 0.81314453 -15.91878906 0.81378906 -14.81445312 0.81445312 C-9.77730904 0.8425239 -4.94596929 0.92478929 0 2 C0 1.34 0 0.68 0 0 Z " fill="#28A9F8" transform="translate(135,27)"/>
<path d="M0 0 C0.95132309 -0.0049649 1.90264618 -0.00992981 2.88279724 -0.01504517 C6.03914098 -0.0296861 9.19543449 -0.03647145 12.35180664 -0.04199219 C14.53894554 -0.04774135 16.72608441 -0.05349911 18.91322327 -0.05926514 C23.5023726 -0.06978015 28.09150438 -0.07561977 32.68066406 -0.07910156 C38.57016138 -0.08459218 44.45942819 -0.10863031 50.34885311 -0.13707352 C54.86719956 -0.15566596 59.38549006 -0.16090365 63.90387154 -0.16243744 C66.07566147 -0.16547138 68.24745025 -0.17352468 70.4192028 -0.18662262 C73.45282595 -0.20361474 76.48588027 -0.20181976 79.51953125 -0.1953125 C80.42197571 -0.20452728 81.32442017 -0.21374207 82.25421143 -0.22323608 C83.0800322 -0.21766693 83.90585297 -0.21209778 84.75669861 -0.20635986 C85.47402129 -0.20782642 86.19134398 -0.20929298 86.93040371 -0.21080399 C89.40834098 0.27578908 90.30649377 1.17537321 91.82446289 3.16113281 C92.01196289 5.84863281 92.01196289 5.84863281 91.82446289 8.16113281 C91.53571289 7.52175781 91.24696289 6.88238281 90.94946289 6.22363281 C89.99622838 4.00907202 89.99622838 4.00907202 87.82446289 3.16113281 C84.77393192 3.03810208 81.74479552 2.97532958 78.69311523 2.95581055 C77.74672684 2.94591095 76.80033844 2.93601135 75.82527161 2.92581177 C72.68700693 2.89414259 69.5487271 2.86941793 66.41040039 2.84472656 C64.2384908 2.82416171 62.06658525 2.80316537 59.89468384 2.78175354 C54.17036204 2.72648442 48.44600384 2.67709651 42.72161865 2.62890625 C36.88347116 2.57872653 31.04537672 2.52302207 25.20727539 2.46777344 C13.74638318 2.36013268 2.28544496 2.25870087 -9.17553711 2.16113281 C-8.51553711 4.14113281 -7.85553711 6.12113281 -7.17553711 8.16113281 C18.89446289 8.49113281 44.96446289 8.82113281 71.82446289 9.16113281 C72.31946289 10.15113281 72.31946289 10.15113281 72.82446289 11.16113281 C62.33250006 11.23061914 51.8405919 11.28393715 41.34844589 11.31656933 C36.4765994 11.33223052 31.60491024 11.35347712 26.7331543 11.38745117 C22.03232525 11.42002837 17.33164763 11.43798241 12.63071442 11.44576454 C10.83653632 11.451311 9.04236657 11.46214179 7.24825287 11.47832298 C4.73668965 11.50007561 2.22575347 11.50310067 -0.28588867 11.50170898 C-1.02891739 11.51249481 -1.77194611 11.52328064 -2.53749084 11.53439331 C-6.70155084 11.50939851 -9.15523362 11.12494859 -12.17553711 8.16113281 C-11.91992388 5.81801151 -11.58282938 3.48269878 -11.17553711 1.16113281 C-7.73838213 -0.55744468 -3.78317947 0.00467574 0 0 Z " fill="#3073AC" transform="translate(79.175537109375,91.8388671875)"/>
<path d="M0 0 C0 0.66 0 1.32 0 2 C-0.99 2 -1.98 2 -3 2 C-2.505 2.99 -2.505 2.99 -2 4 C-1.01 4.33 -0.02 4.66 1 5 C0 7 0 7 -1.77734375 7.59765625 C-2.49019531 7.75105469 -3.20304687 7.90445313 -3.9375 8.0625 C-6.17154137 8.55309711 -7.94795605 8.97397802 -10 10 C-11.59262066 10.15175549 -13.19064856 10.24900325 -14.7890625 10.31640625 C-16.20058594 10.37924805 -16.20058594 10.37924805 -17.640625 10.44335938 C-19.11789063 10.50233398 -19.11789063 10.50233398 -20.625 10.5625 C-21.61757812 10.60568359 -22.61015625 10.64886719 -23.6328125 10.69335938 C-26.08839838 10.79961069 -28.54408703 10.90164964 -31 11 C-31.33 11.66 -31.66 12.32 -32 13 C-32.33 12.01 -32.66 11.02 -33 10 C-33.90492187 10.03480469 -33.90492187 10.03480469 -34.828125 10.0703125 C-36.02695313 10.09738281 -36.02695313 10.09738281 -37.25 10.125 C-38.03890625 10.14820313 -38.8278125 10.17140625 -39.640625 10.1953125 C-42.22651378 9.98124886 -43.73374926 9.20866706 -46 8 C-48.66709069 7.83249586 -48.66709069 7.83249586 -51 8 C-52.24546405 5.50907189 -51.7767578 4.58919267 -51 2 C-51.99 1.67 -52.98 1.34 -54 1 C-53.195625 1.06058594 -52.39125 1.12117187 -51.5625 1.18359375 C-39.38621575 2.05142103 -27.19721893 2.52871971 -15 3 C-15 2.34 -15 1.68 -15 1 C-13.25021843 0.83105557 -11.50016388 0.66493691 -9.75 0.5 C-8.77546875 0.4071875 -7.8009375 0.314375 -6.796875 0.21875 C-4.53697847 0.04199832 -2.26679807 0 0 0 Z " fill="#28A9F7" transform="translate(147,196)"/>
<path d="M0 0 C0.91899582 -0.00511093 1.83799164 -0.01022186 2.78483582 -0.01548767 C5.82879107 -0.02941011 8.87252055 -0.02842474 11.91650391 -0.02612305 C14.0301624 -0.03000884 16.14382011 -0.03434327 18.25747681 -0.03910828 C22.69104542 -0.04657643 27.12453442 -0.04627512 31.55810547 -0.04101562 C37.24001715 -0.03522367 42.92160257 -0.05214264 48.60346031 -0.0753603 C52.9700613 -0.09009271 57.33658367 -0.09096994 61.70320511 -0.08785057 C63.79797639 -0.08836414 65.89275202 -0.0936086 67.98749924 -0.10366249 C70.91766284 -0.11599832 73.84719033 -0.10925192 76.77734375 -0.09765625 C77.6429744 -0.10529999 78.50860504 -0.11294373 79.40046692 -0.12081909 C84.04365349 -0.08020371 87.31714512 0.13464746 91.01806641 3.2746582 C91.64306641 6.2746582 91.64306641 6.2746582 91.01806641 9.2746582 C87.02417693 12.46891272 83.85345131 12.61999837 78.84106445 12.5234375 C78.13807724 12.51412201 77.43509003 12.50480652 76.71080017 12.49520874 C74.39995832 12.46098467 72.09018834 12.40506862 69.77978516 12.34887695 C68.17269638 12.3208282 66.56558335 12.29413946 64.95845032 12.26875305 C60.73805286 12.19844284 56.51823791 12.1097024 52.29827881 12.01708984 C47.98827768 11.92577411 43.67798084 11.85193324 39.36767578 11.77661133 C30.91741929 11.62637312 22.4676982 11.4566588 14.01806641 11.2746582 C14.01806641 10.9446582 14.01806641 10.6146582 14.01806641 10.2746582 C36.45806641 9.9446582 58.89806641 9.6146582 82.01806641 9.2746582 C82.01806641 7.2946582 82.01806641 5.3146582 82.01806641 3.2746582 C52.64806641 3.2746582 23.27806641 3.2746582 -6.98193359 3.2746582 C-7.31193359 3.9346582 -7.64193359 4.5946582 -7.98193359 5.2746582 C-8.64193359 5.2746582 -9.30193359 5.2746582 -9.98193359 5.2746582 C-9.98193359 5.9346582 -9.98193359 6.5946582 -9.98193359 7.2746582 C-10.97193359 7.6046582 -11.96193359 7.9346582 -12.98193359 8.2746582 C-12.66943359 5.3996582 -12.66943359 5.3996582 -11.98193359 2.2746582 C-8.02037195 -0.3663829 -4.59855123 -0.01309969 0 0 Z " fill="#359EE0" transform="translate(79.98193359375,130.725341796875)"/>
<path d="M0 0 C1.2304454 -0.00618599 1.2304454 -0.00618599 2.48574829 -0.01249695 C3.3819841 -0.00171112 4.27821991 0.00907471 5.20161438 0.02018738 C6.1481488 0.0197493 7.09468323 0.01931122 8.06990051 0.01885986 C11.2029625 0.02095226 14.33549141 0.04430482 17.46846008 0.0677948 C19.63893339 0.07338914 21.80941047 0.07766 23.97988892 0.08065796 C29.69611547 0.09211942 35.41211381 0.12159794 41.12825012 0.1547699 C46.95972099 0.18544267 52.79122869 0.19915733 58.62275696 0.21427917 C70.06751876 0.24646627 81.51211108 0.29767844 92.95674133 0.36076355 C92.95674133 1.02076355 92.95674133 1.68076355 92.95674133 2.36076355 C45.93174133 2.85576355 45.93174133 2.85576355 -2.04325867 3.36076355 C-2.37325867 4.68076355 -2.70325867 6.00076355 -3.04325867 7.36076355 C0.88964611 9.98270007 4.26789811 9.66812521 8.83442688 9.67961121 C9.74194702 9.68965683 10.64946716 9.69970245 11.58448792 9.71005249 C14.58747213 9.74097057 17.59036684 9.75794361 20.59346008 9.77482605 C22.67426325 9.79353076 24.75505878 9.81310364 26.83584595 9.83351135 C32.31518558 9.8849122 37.79454982 9.92449537 43.27400208 9.96165466 C48.86427438 10.00164448 54.45444359 10.0527597 60.04463196 10.10295105 C71.01526275 10.1998045 81.98595164 10.28417913 92.95674133 10.36076355 C92.95674133 10.69076355 92.95674133 11.02076355 92.95674133 11.36076355 C80.5090146 11.43022561 68.06133387 11.4835556 55.61345291 11.51620007 C49.8336071 11.53186652 44.05389373 11.55312286 38.27412415 11.58708191 C32.69797714 11.61964013 27.12195767 11.63760918 21.54572296 11.64539528 C19.41661827 11.65094513 17.28752067 11.66178241 15.15847015 11.67795372 C12.17994008 11.69968076 9.20193926 11.70273243 6.2233429 11.70133972 C4.8984082 11.71751846 4.8984082 11.71751846 3.54670715 11.73402405 C-2.40187074 11.70385907 -2.40187074 11.70385907 -5.59507751 9.99572754 C-7.04325867 8.36076355 -7.04325867 8.36076355 -7.48075867 5.86076355 C-6.70031632 1.40109302 -4.36978898 -0.01695908 0 0 Z " fill="#3B90CC" transform="translate(74.04325866699219,111.63923645019531)"/>
<path d="M0 0 C1.05904289 0.00636726 1.05904289 0.00636726 2.13948059 0.01286316 C4.39155428 0.02963841 6.64272867 0.06728632 8.89453125 0.10546875 C10.4225131 0.12051718 11.95050901 0.13420531 13.47851562 0.14648438 C17.22169997 0.17953786 20.96421321 0.23131043 24.70703125 0.29296875 C21.3835555 2.27547966 18.79606067 2.56541098 14.953125 2.63671875 C13.85162109 2.66636719 12.75011719 2.69601563 11.61523438 2.7265625 C9.29752747 2.77090805 6.97981913 2.81517863 4.66210938 2.859375 C3.01178711 2.90384766 3.01178711 2.90384766 1.328125 2.94921875 C0.32193115 2.96791016 -0.6842627 2.98660156 -1.72094727 3.00585938 C-4.53129404 3.12037434 -4.53129404 3.12037434 -7.29296875 5.29296875 C-7.29296875 6.28296875 -7.29296875 7.27296875 -7.29296875 8.29296875 C-3.91113737 9.98388444 -0.06712408 9.47397983 3.65478516 9.49829102 C5.04510704 9.51314041 5.04510704 9.51314041 6.46351624 9.52828979 C9.53684914 9.55995695 12.61019753 9.58468283 15.68359375 9.609375 C17.81066293 9.62994002 19.93772799 9.65093637 22.06478882 9.67234802 C27.67074241 9.72761533 33.27673317 9.77700405 38.88275146 9.82519531 C44.60025348 9.87537635 50.31770135 9.93108013 56.03515625 9.98632812 C67.25906835 10.09396668 78.48302742 10.19539897 89.70703125 10.29296875 C89.70703125 8.31296875 89.70703125 6.33296875 89.70703125 4.29296875 C86.07556242 3.47362844 82.63660637 3.12515439 78.91796875 3.01171875 C77.81066406 2.97433594 76.70335937 2.93695313 75.5625 2.8984375 C74.41394531 2.86363281 73.26539063 2.82882813 72.08203125 2.79296875 C63.92195912 2.54059539 55.82924031 2.13694104 47.70703125 1.29296875 C47.70703125 0.96296875 47.70703125 0.63296875 47.70703125 0.29296875 C53.61520643 0.21879323 59.52311036 0.16435441 65.43164062 0.12817383 C67.44145428 0.11309049 69.45123504 0.09262103 71.4609375 0.06665039 C74.35034301 0.03024731 77.23931321 0.01323787 80.12890625 0 C81.47598663 -0.02322578 81.47598663 -0.02322578 82.85028076 -0.04692078 C89.06222878 -0.04859534 89.06222878 -0.04859534 92.27832031 1.6550293 C93.70703125 3.29296875 93.70703125 3.29296875 94.14453125 5.79296875 C93.6286899 8.74063363 93.01732197 9.4629583 90.70703125 11.29296875 C88.81576538 11.67049217 88.81576538 11.67049217 86.64599609 11.67391968 C85.82162048 11.68237915 84.99724487 11.69083862 84.14788818 11.69955444 C83.24701477 11.69348175 82.34614136 11.68740906 81.41796875 11.68115234 C80.46649963 11.6864093 79.51503052 11.69166626 78.534729 11.69708252 C75.38366369 11.71030683 72.23310187 11.70153571 69.08203125 11.69140625 C66.89632063 11.69342628 64.71061066 11.69633713 62.52490234 11.70010376 C57.94166657 11.70453042 53.35860605 11.69808497 48.77539062 11.68408203 C42.89372813 11.66699009 37.01247628 11.67682943 31.13082886 11.69479942 C26.61674899 11.70562796 22.10276685 11.70219517 17.58868408 11.69441605 C15.41969759 11.69241147 13.25070229 11.6948823 11.08172607 11.70185471 C8.05294207 11.70945378 5.02482774 11.69788639 1.99609375 11.68115234 C1.09522034 11.68722504 0.19434692 11.69329773 -0.73382568 11.69955444 C-1.55820129 11.69109497 -2.3825769 11.6826355 -3.23193359 11.67391968 C-4.30596939 11.67222306 -4.30596939 11.67222306 -5.40170288 11.67049217 C-7.86958363 11.17786826 -8.76475288 10.25790005 -10.29296875 8.29296875 C-10.70592233 5.53994485 -10.76157226 4.0118942 -9.2253418 1.6550293 C-6.32224396 -0.39126038 -3.41783254 -0.07731629 0 0 Z " fill="#4086B7" transform="translate(77.29296875,71.70703125)"/>
<path d="M0 0 C4.79505671 0.64620881 8.71479887 2.56466512 13 4.6875 C13.69867188 5.01427734 14.39734375 5.34105469 15.1171875 5.67773438 C19.97883758 8.07645418 22.79474384 10.62407411 26 15 C23.69 15.33 21.38 15.66 19 16 C19 17.32 19 18.64 19 20 C19.61875 20.04125 20.2375 20.0825 20.875 20.125 C21.57625 20.41375 22.2775 20.7025 23 21 C24.25 24.0625 24.25 24.0625 25 27 C24.53053955 26.6277832 24.0610791 26.25556641 23.57739258 25.87207031 C18.52279224 21.96098595 13.31186887 18.76954518 7.6875 15.75 C6.10750565 14.89166839 4.52805537 14.03233432 2.94921875 13.171875 C2.26174561 12.8015918 1.57427246 12.43130859 0.8659668 12.04980469 C-0.80236491 11.11119075 -2.40725342 10.06183105 -4 9 C-1.69 9.33 0.62 9.66 3 10 C3 9.34 3 8.68 3 8 C3.66 7.67 4.32 7.34 5 7 C4.60196439 4.11424181 4.20990931 3.17810487 1.9375 1.25 C1.298125 0.8375 0.65875 0.425 0 0 Z " fill="#2BA7F3" transform="translate(150,32)"/>
<path d="M0 0 C3.43918788 1.5046447 3.49785892 2.10793236 5 5.3125 C7.53770003 6.59504644 7.53770003 6.59504644 10 7.3125 C9.67 9.6225 9.34 11.9325 9 14.3125 C10.32 13.6525 11.64 12.9925 13 12.3125 C13.66 12.9725 14.32 13.6325 15 14.3125 C14 17.3125 14 17.3125 12.3125 18.6875 C10 19.3125 10 19.3125 6.9375 18.125 C1.55540174 14.80413086 0.53338555 12.56399492 -1 6.3125 C-2.65 5.9825 -4.3 5.6525 -6 5.3125 C-5.625 2.875 -5.625 2.875 -5 0.3125 C-3 -0.6875 -3 -0.6875 0 0 Z " fill="#27A9F6" transform="translate(174,46.6875)"/>
<path d="M0 0 C9.77427532 4.13527033 16.70015402 14.16692337 22 23 C22 23.66 22 24.32 22 25 C21.34 25 20.68 25 20 25 C19.67 24.34 19.34 23.68 19 23 C16.98330173 21.86649466 16.98330173 21.86649466 15 21 C14.44746779 28.35174806 15.48935892 33.511583 19 40 C18.34 40 17.68 40 17 40 C16.56429687 39.09378906 16.12859375 38.18757813 15.6796875 37.25390625 C12.22453162 30.15635489 8.63684802 23.4202511 4 17 C4.763125 17.185625 5.52625 17.37125 6.3125 17.5625 C9.08967375 18.22819173 9.08967375 18.22819173 12 17 C11.67 15.68 11.34 14.36 11 13 C9.68 13.33 8.36 13.66 7 14 C7 11.69 7 9.38 7 7 C6.401875 6.773125 5.80375 6.54625 5.1875 6.3125 C2.43648112 4.66188867 1.47515363 2.8027919 0 0 Z " fill="#2CA2EF" transform="translate(176,47)"/>
<path d="M0 0 C1.02801727 -0.0127597 2.05603455 -0.02551941 3.11520386 -0.03866577 C4.78705246 -0.04200424 4.78705246 -0.04200424 6.49267578 -0.04541016 C7.63455353 -0.05206696 8.77643127 -0.05872375 9.95291138 -0.06558228 C12.37223699 -0.07572278 14.79159066 -0.08039887 17.2109375 -0.08007812 C20.91599611 -0.08444673 24.61985973 -0.12074099 28.32470703 -0.15869141 C30.6723592 -0.16456009 33.02001704 -0.16852914 35.36767578 -0.17041016 C36.47819305 -0.18478119 37.58871033 -0.19915222 38.73287964 -0.21395874 C39.76720123 -0.20780548 40.80152283 -0.20165222 41.8671875 -0.1953125 C43.23047684 -0.19958755 43.23047684 -0.19958755 44.62130737 -0.20394897 C47.78949135 0.43765491 49.00498173 1.87089348 51.06298828 4.29052734 C49.18798828 9.16552734 49.18798828 9.16552734 48.06298828 10.29052734 C46.41671885 10.39964398 44.7658043 10.4395898 43.1159668 10.45166016 C41.53411339 10.46607147 41.53411339 10.46607147 39.92030334 10.48077393 C38.19849098 10.48714874 38.19849098 10.48714874 36.44189453 10.49365234 C35.27166245 10.49935242 34.10143036 10.50505249 32.89573669 10.51092529 C30.41495676 10.52039175 27.93416416 10.52691577 25.45336914 10.53076172 C21.64528652 10.54047683 17.83774116 10.57148944 14.02978516 10.60302734 C11.6254915 10.60955593 9.22119397 10.61480697 6.81689453 10.61865234 C5.09811852 10.63717255 5.09811852 10.63717255 3.34461975 10.65606689 C2.28689865 10.6530658 1.22917755 10.6500647 0.1394043 10.64697266 C-0.79467758 10.65061829 -1.72875946 10.65426392 -2.69114685 10.65802002 C-3.43228226 10.53674744 -4.17341766 10.41547485 -4.93701172 10.29052734 C-7.08616957 7.06679057 -7.31987975 6.02349061 -6.93701172 2.29052734 C-4.40453745 -0.24194693 -3.50947237 0.0294894 0 0 Z M-2.93701172 3.29052734 C-3.74230061 5.34053605 -3.74230061 5.34053605 -3.93701172 7.29052734 C-0.85264845 9.34676952 -0.22487979 9.54015753 3.25561523 9.53344727 C4.09691483 9.5365239 4.93821442 9.53960052 5.80500793 9.54277039 C7.16440742 9.53199211 7.16440742 9.53199211 8.55126953 9.52099609 C9.9552021 9.52030876 9.9552021 9.52030876 11.38749695 9.51960754 C13.36877712 9.51658574 15.35005493 9.5087016 17.33129883 9.49633789 C20.35327652 9.47816095 23.37494617 9.47582774 26.39697266 9.47607422 C28.32340758 9.47115563 30.24984044 9.46532583 32.17626953 9.45849609 C33.07646317 9.45738327 33.9766568 9.45627045 34.90412903 9.4551239 C39.40095961 9.421402 43.63731312 9.19997479 48.06298828 8.29052734 C48.06298828 6.31052734 48.06298828 4.33052734 48.06298828 2.29052734 C45.28998095 1.36619157 43.6099319 1.15956852 40.74682617 1.14526367 C39.87905045 1.13888382 39.01127472 1.13250397 38.11720276 1.12593079 C37.18278854 1.12481796 36.24837433 1.12370514 35.28564453 1.12255859 C33.84130287 1.11756599 33.84130287 1.11756599 32.36778259 1.11247253 C30.33104938 1.10740934 28.29430786 1.10506402 26.25756836 1.10522461 C23.14113713 1.10303832 20.02505998 1.08487668 16.90869141 1.06591797 C14.93017699 1.0629839 12.9516609 1.06099919 10.97314453 1.06005859 C10.04075455 1.05287308 9.10836456 1.04568756 8.14772034 1.0382843 C6.84132851 1.04289925 6.84132851 1.04289925 5.50854492 1.04760742 C4.3629586 1.04546989 4.3629586 1.04546989 3.19422913 1.04328918 C0.74298111 1.32765031 -0.85552977 1.97549611 -2.93701172 3.29052734 Z " fill="#3BA0E2" transform="translate(73.93701171875,151.70947265625)"/>
<path d="M0 0 C12.59540151 -0.04628559 25.19078287 -0.08184998 37.78625202 -0.10362434 C43.6344687 -0.11407351 49.4826273 -0.1282534 55.33081055 -0.15087891 C60.97178406 -0.17256684 66.61270163 -0.18456008 72.25371361 -0.18975449 C74.40875314 -0.19345753 76.56378952 -0.20068837 78.71880531 -0.21146011 C81.73098051 -0.22592116 84.74292278 -0.2279802 87.75512695 -0.22705078 C88.65136276 -0.23424133 89.54759857 -0.24143188 90.47099304 -0.24884033 C91.29128998 -0.246091 92.11158691 -0.24334167 92.95674133 -0.24050903 C93.66928731 -0.24235262 94.38183329 -0.24419621 95.11597157 -0.24609566 C97 0 97 0 100 2 C100.1875 5.125 100.1875 5.125 100 8 C96.71480525 9.09506492 94.26336585 9.09960608 90.8125 9.0625 C89.18248047 9.04896484 89.18248047 9.04896484 87.51953125 9.03515625 C86.68808594 9.02355469 85.85664063 9.01195313 85 9 C85 8.34 85 7.68 85 7 C89.455 6.505 89.455 6.505 94 6 C94 4.68 94 3.36 94 2 C62.98 2 31.96 2 0 2 C0 1.34 0 0.68 0 0 Z " fill="#31A4EC" transform="translate(70,94)"/>
<path d="M0 0 C0 0.66 0 1.32 0 2 C0.99 2 1.98 2 3 2 C2.87535163 6.11339633 1.3239356 7.92708852 -1.5 10.6875 C-2.1290625 11.26886719 -2.758125 11.85023437 -3.40625 12.44921875 C-5.10135232 13.9284043 -5.10135232 13.9284043 -6 16 C-7.093125 15.938125 -8.18625 15.87625 -9.3125 15.8125 C-12.92126083 15.64402086 -12.92126083 15.64402086 -14.9375 17.5 C-15.288125 17.995 -15.63875 18.49 -16 19 C-15.3287848 11.95224036 -11.96344694 7.7922936 -7 3 C-6.67 2.34 -6.34 1.68 -6 1 C-3 0 -3 0 0 0 Z " fill="#26ABF9" transform="translate(62,52)"/>
<path d="M0 0 C0.66 0 1.32 0 2 0 C2.13277344 0.71027344 2.26554687 1.42054688 2.40234375 2.15234375 C2.57894531 3.07144531 2.75554688 3.99054688 2.9375 4.9375 C3.11152344 5.85402344 3.28554688 6.77054688 3.46484375 7.71484375 C3.77714988 9.95289844 3.77714988 9.95289844 5 11 C5.04063832 12.66617115 5.042721 14.33388095 5 16 C5.66 16 6.32 16 7 16 C7.99 18.31 8.98 20.62 10 23 C10.99 22.67 11.98 22.34 13 22 C13.67801034 19.09926819 13.67801034 19.09926819 14 16 C13.34 15.34 12.68 14.68 12 14 C11.5859375 11.3984375 11.5859375 11.3984375 11.375 8.375 C11.30023438 7.37210938 11.22546875 6.36921875 11.1484375 5.3359375 C11.09945312 4.56507813 11.05046875 3.79421875 11 3 C13.2291086 7.2827781 14.9687128 11.75209956 16.78125 16.22265625 C17.96107156 19.12967611 17.96107156 19.12967611 20 22 C20.125 25.1875 20.125 25.1875 20 28 C19.1028125 27.4740625 19.1028125 27.4740625 18.1875 26.9375 C15.89186786 25.66695302 15.89186786 25.66695302 13 27 C13 28.32 13 29.64 13 31 C13.66 31 14.32 31 15 31 C15.33 32.65 15.66 34.3 16 36 C11.58599566 32.08583936 9.2779804 28.16421644 6.875 22.8125 C6.52953125 22.0594458 6.1840625 21.3063916 5.828125 20.53051758 C2.81992715 13.85033776 0 7.40961 0 0 Z " fill="#2EA0EC" transform="translate(29,134)"/>
<path d="M0 0 C0.99 0.33 1.98 0.66 3 1 C3.6875 3.0625 3.6875 3.0625 4 5 C4.88751953 5.14888672 4.88751953 5.14888672 5.79296875 5.30078125 C9.67452483 6.53051318 11.97900264 9.55940934 14 13 C13.875 16.4375 13.875 16.4375 13 19 C11.68 19.33 10.36 19.66 9 20 C8.54625 19.360625 8.0925 18.72125 7.625 18.0625 C6.16078274 15.90297594 6.16078274 15.90297594 4 15 C4 14.34 4 13.68 4 13 C2.35 12.67 0.7 12.34 -1 12 C-1 10.02 -1 8.04 -1 6 C-1.66 6 -2.32 6 -3 6 C-3 4.68 -3 3.36 -3 2 C-2.01 1.34 -1.02 0.68 0 0 Z " fill="#27A8F6" transform="translate(45,159)"/>
<path d="M0 0 C1.46276367 -0.00193359 1.46276367 -0.00193359 2.95507812 -0.00390625 C3.96892578 -0.00003906 4.98277344 0.00382812 6.02734375 0.0078125 C7.01412109 0.00394531 8.00089844 0.00007813 9.01757812 -0.00390625 C14.77289507 0.00363182 20.41224834 0.30319643 26.13696289 0.87890625 C31.29863591 1.34235613 36.47472728 1.5019049 41.65234375 1.6953125 C43.29493164 1.76008789 43.29493164 1.76008789 44.97070312 1.82617188 C47.63532972 1.93089519 50.30002686 2.03307029 52.96484375 2.1328125 C52.96484375 2.4628125 52.96484375 2.7928125 52.96484375 3.1328125 C26.56484375 3.1328125 0.16484375 3.1328125 -27.03515625 3.1328125 C-27.03515625 2.8028125 -27.03515625 2.4728125 -27.03515625 2.1328125 C-25.7821875 2.07222656 -24.52921875 2.01164062 -23.23828125 1.94921875 C-21.58722901 1.86478994 -19.9361879 1.78014311 -18.28515625 1.6953125 C-17.46015625 1.65599609 -16.63515625 1.61667969 -15.78515625 1.57617188 C-14.9859375 1.53427734 -14.18671875 1.49238281 -13.36328125 1.44921875 C-12.63012695 1.41256104 -11.89697266 1.37590332 -11.14160156 1.33813477 C-9.04107644 1.18937081 -9.04107644 1.18937081 -7.0793457 0.62133789 C-4.66553039 0.04447841 -2.48143424 0.00320747 0 0 Z " fill="#26B4EE" transform="translate(107.03515625,71.8671875)"/>
<path d="M0 0 C0.90250488 0.0038269 1.80500977 0.00765381 2.73486328 0.01159668 C3.72728027 0.02646118 4.71969727 0.04132568 5.7421875 0.05664062 C6.7926123 0.06473755 7.84303711 0.07283447 8.92529297 0.08117676 C12.48949904 0.11297704 16.05320952 0.16168404 19.6171875 0.21289062 C21.53724609 0.23754395 21.53724609 0.23754395 23.49609375 0.26269531 C32.48763253 0.37915464 41.47857206 0.5228204 50.46954346 0.67645264 C54.11118194 0.73823847 57.75285819 0.79771541 61.39453125 0.85742188 C68.46878721 0.97372942 75.54300024 1.09247069 82.6171875 1.21289062 C82.6171875 1.54289063 82.6171875 1.87289062 82.6171875 2.21289062 C54.5671875 2.54289063 26.5171875 2.87289062 -2.3828125 3.21289062 C-2.7128125 3.87289062 -3.0428125 4.53289062 -3.3828125 5.21289062 C-4.0428125 5.21289062 -4.7028125 5.21289062 -5.3828125 5.21289062 C-5.3828125 5.87289062 -5.3828125 6.53289062 -5.3828125 7.21289062 C-6.3728125 7.54289063 -7.3628125 7.87289062 -8.3828125 8.21289062 C-8.0703125 5.33789062 -8.0703125 5.33789062 -7.3828125 2.21289062 C-4.23702222 0.11569711 -3.57269438 -0.03340864 0 0 Z " fill="#2B7DC0" transform="translate(75.3828125,130.787109375)"/>
<path d="M0 0 C0.99 0.66 1.98 1.32 3 2 C3.4375 4.4375 3.4375 4.4375 3 7 C1.24015169 8.97507404 -0.2113816 9.89328947 -2.85301971 10.25073814 C-5.23874076 10.33038037 -7.60477098 10.30496802 -9.99121094 10.2487793 C-10.89887711 10.23946381 -11.80654327 10.23014832 -12.74171448 10.22055054 C-15.73964874 10.18619593 -18.73677493 10.13029864 -21.734375 10.07421875 C-23.81372359 10.04618432 -25.8930907 10.01949405 -27.97247314 9.99409485 C-33.44388275 9.9236469 -38.9148499 9.83492691 -44.38592529 9.74243164 C-49.96937085 9.65126011 -55.55304153 9.57732661 -61.13671875 9.50195312 C-72.09143554 9.35152991 -83.04576228 9.18180733 -94 9 C-94 8.67 -94 8.34 -94 8 C-64.96 8 -35.92 8 -6 8 C-6 6.35 -6 4.7 -6 3 C-5.01 3.495 -5.01 3.495 -4 4 C-4 4.99 -4 5.98 -4 7 C-2.68 7 -1.36 7 0 7 C0 4.69 0 2.38 0 0 Z " fill="#3DABEB" transform="translate(168,113)"/>
<path d="M0 0 C0.33 0 0.66 0 1 0 C0.88637738 1.4800841 0.75877092 2.95910074 0.625 4.4375 C0.55539063 5.26121094 0.48578125 6.08492187 0.4140625 6.93359375 C0.27742188 7.61550781 0.14078125 8.29742187 0 9 C-0.99 9.495 -0.99 9.495 -2 10 C-2.40729228 12.32156597 -2.74438677 14.6568787 -3 17 C-3.66 17 -4.32 17 -5 17 C-5.33 18.65 -5.66 20.3 -6 22 C-6.721875 22.103125 -7.44375 22.20625 -8.1875 22.3125 C-12.89584925 23.46342982 -15.37938474 25.17810412 -18.3125 29.0625 C-21.80314973 32.87786133 -23.99581794 33.15183355 -29 34 C-26.24734147 31.07530031 -23.53867016 28.62114645 -20.25 26.3125 C-10.7468797 19.26122053 -5.09430956 10.45070578 0 0 Z " fill="#2BA9F0" transform="translate(191,152)"/>
<path d="M0 0 C-0.875 3.875 -0.875 3.875 -2 5 C-0.68 5.33 0.64 5.66 2 6 C0.35 6.33 -1.3 6.66 -3 7 C-3 7.66 -3 8.32 -3 9 C-4.0625 10.5625 -4.0625 10.5625 -6 12 C-9.6875 12.6875 -9.6875 12.6875 -13 13 C-13.66 11.35 -14.32 9.7 -15 8 C-13.33333333 6.33333333 -11.66666667 4.66666667 -10 3 C-9.46375 2.4225 -8.9275 1.845 -8.375 1.25 C-5.56438285 -1.3051065 -3.37510852 -1.04744747 0 0 Z " fill="#2AA9F5" transform="translate(78,40)"/>
<path d="M0 0 C0.66 0.33 1.32 0.66 2 1 C-2.75 6.875 -2.75 6.875 -5 8 C-4.67 9.65 -4.34 11.3 -4 13 C-2.02 12.67 -0.04 12.34 2 12 C0.35 13.65 -1.3 15.3 -3 17 C-3.33 16.01 -3.66 15.02 -4 14 C-4.99 14 -5.98 14 -7 14 C-7 13.34 -7 12.68 -7 12 C-9.94727535 12.10169161 -9.94727535 12.10169161 -13 13 C-14.23290201 15.45704762 -14.23290201 15.45704762 -15 18 C-15.99 18.33 -16.98 18.66 -18 19 C-18.309375 19.66 -18.61875 20.32 -18.9375 21 C-20 23 -20 23 -22.125 23.75 C-23.053125 23.87375 -23.053125 23.87375 -24 24 C-20.2673423 18.11388594 -16.06751499 11.68384839 -10 8 C-9.34 8 -8.68 8 -8 8 C-8 7.34 -8 6.68 -8 6 C-6.25 4.4921875 -6.25 4.4921875 -4 2.875 C-3.2575 2.33617187 -2.515 1.79734375 -1.75 1.2421875 C-0.88375 0.62730469 -0.88375 0.62730469 0 0 Z " fill="#2FA4E6" transform="translate(69,40)"/>
<path d="M0 0 C1.64846769 0.44876616 3.29373455 0.90930488 4.9375 1.375 C5.85402344 1.63023437 6.77054687 1.88546875 7.71484375 2.1484375 C10 3 10 3 11 5 C12.7015625 5.4640625 12.7015625 5.4640625 14.4375 5.9375 C18 7 18 7 20 10 C22.67395882 10.77033558 22.67395882 10.77033558 25.75 11.125 C26.77609375 11.27195313 27.8021875 11.41890625 28.859375 11.5703125 C29.89578125 11.71210938 30.9321875 11.85390625 32 12 C37.8677686 12.8677686 37.8677686 12.8677686 39 14 C40.51469448 14.23192865 42.03754562 14.41215238 43.5625 14.5625 C44.38878906 14.64628906 45.21507812 14.73007813 46.06640625 14.81640625 C46.70449219 14.87699219 47.34257813 14.93757812 48 15 C48 15.66 48 16.32 48 17 C30.37152424 16.39628508 14.01794406 12.15063732 0 1 C0 0.67 0 0.34 0 0 Z " fill="#2F8CC7" transform="translate(66,191)"/>
<path d="M0 0 C5.90817518 -0.07417552 11.81607911 -0.12861434 17.72460938 -0.16479492 C19.73442303 -0.17987826 21.74420379 -0.20034772 23.75390625 -0.22631836 C26.64331176 -0.26272144 29.53228196 -0.27973088 32.421875 -0.29296875 C33.76895538 -0.31619453 33.76895538 -0.31619453 35.14324951 -0.33988953 C41.3466419 -0.34156178 41.3466419 -0.34156178 44.58300781 1.3503418 C46 3 46 3 46.25 5.6875 C46.1675 6.450625 46.085 7.21375 46 8 C45.01 8 44.02 8 43 8 C42.505 6.02 42.505 6.02 42 4 C38.36853117 3.18065969 34.92957512 2.83218564 31.2109375 2.71875 C29.54998047 2.66267578 29.54998047 2.66267578 27.85546875 2.60546875 C26.70691406 2.57066406 25.55835938 2.53585938 24.375 2.5 C16.21492787 2.24762664 8.12220906 1.84397229 0 1 C0 0.67 0 0.34 0 0 Z " fill="#3397C5" transform="translate(125,72)"/>
<path d="M0 0 C0 0.66 0 1.32 0 2 C-0.84071045 1.98428955 -1.6814209 1.9685791 -2.54760742 1.95239258 C-5.7328046 1.90059187 -8.91778383 1.86332887 -12.10327148 1.83520508 C-13.46955526 1.82032112 -14.83579308 1.80000714 -16.2019043 1.77368164 C-26.42769818 1.58187749 -36.16551156 2.17453817 -45.71948242 6.12426758 C-48.31307156 7.12022136 -49.43757091 6.94904781 -52 6 C-36.8551683 -0.87449734 -16.37786417 -4.75563237 0 0 Z " fill="#2F7FB9" transform="translate(135,27)"/>
<path d="M0 0 C4.67044255 0.97928634 9.20869108 2.03338056 13.75 3.5 C25.75301831 7.12667885 37.58909459 7.25072536 50 7 C50 7.66 50 8.32 50 9 C14.57672655 9.86517264 14.57672655 9.86517264 0 1 C0 0.67 0 0.34 0 0 Z " fill="#3388CB" transform="translate(82,190)"/>
<path d="M0 0 C0.99 0 1.98 0 3 0 C3.33 0.66 3.66 1.32 4 2 C4.66 2 5.32 2 6 2 C5.625 4.4375 5.625 4.4375 5 7 C4.01 7.495 4.01 7.495 3 8 C2.34786708 10.02463255 2.34786708 10.02463255 2 12 C1.01 12 0.02 12 -1 12 C-1.33 12.99 -1.66 13.98 -2 15 C-2.99 15 -3.98 15 -5 15 C-3.60961435 9.86626838 -1.91539047 4.96260257 0 0 Z " fill="#27A9F8" transform="translate(189,161)"/>
<path d="M0 0 C1.03454819 -0.00637985 2.06909637 -0.0127597 3.13499451 -0.01933289 C4.26099564 -0.02044571 5.38699677 -0.02155853 6.54711914 -0.02270508 C7.69515518 -0.02603348 8.84319122 -0.02936188 10.02601624 -0.03279114 C12.45972288 -0.03786534 14.89343651 -0.04019931 17.32714844 -0.04003906 C21.06269731 -0.04222487 24.79795074 -0.06037379 28.53344727 -0.0793457 C30.89217021 -0.08227958 33.25089456 -0.08426441 35.60961914 -0.08520508 C36.73359604 -0.09239059 37.85757294 -0.09957611 39.01560974 -0.10697937 C40.05331009 -0.10390274 41.09101044 -0.10082611 42.16015625 -0.09765625 C43.07647324 -0.09908127 43.99279022 -0.10050629 44.93687439 -0.10197449 C47.14477539 0.14526367 47.14477539 0.14526367 49.14477539 2.14526367 C48.55008957 2.14304306 47.95540375 2.14082245 47.34269714 2.13853455 C41.16239013 2.11643923 34.98209431 2.10133926 28.80175781 2.09033203 C26.49413599 2.08529816 24.18651736 2.07847062 21.87890625 2.06982422 C18.56517753 2.05771732 15.25149092 2.05202594 11.93774414 2.04760742 C10.90328659 2.04244614 9.86882904 2.03728485 8.80302429 2.03196716 C7.84225479 2.03189163 6.88148529 2.0318161 5.89160156 2.03173828 C5.04554855 2.02951767 4.19949554 2.02729706 3.32780457 2.02500916 C0.96421748 2.05902246 0.96421748 2.05902246 -1.85522461 3.14526367 C-3.54061062 5.14191681 -3.54061062 5.14191681 -4.85522461 7.14526367 C-5.85522461 6.14526367 -5.85522461 6.14526367 -5.98022461 3.64526367 C-5.76173058 -0.72461695 -3.89699368 0.01622524 0 0 Z " fill="#47A4DF" transform="translate(73.855224609375,151.854736328125)"/>
<path d="M0 0 C0.66 0 1.32 0 2 0 C2.82690024 37.04513064 2.82690024 37.04513064 -5 50 C-5.66 50 -6.32 50 -7 50 C-6.5875 48.845 -6.175 47.69 -5.75 46.5 C-5.1594401 44.66898173 -4.57715017 42.83528923 -4 41 C-3.64035156 39.9171875 -3.28070313 38.834375 -2.91015625 37.71875 C0.77501882 25.23374407 0.40202006 12.92649114 0 0 Z " fill="#429EDB" transform="translate(199,102)"/>
<path d="M0 0 C-7.38564423 7.38564423 -26.08828604 7.93024526 -35.97265625 8.046875 C-37.47119141 8.02367187 -37.47119141 8.02367187 -39 8 C-39 7.34 -39 6.68 -39 6 C-38.07719238 5.92483154 -38.07719238 5.92483154 -37.13574219 5.84814453 C-34.33971386 5.61558163 -31.54492737 5.37042613 -28.75 5.125 C-27.29787109 5.00705078 -27.29787109 5.00705078 -25.81640625 4.88671875 C-24.41455078 4.76103516 -24.41455078 4.76103516 -22.984375 4.6328125 C-22.12553711 4.55949707 -21.26669922 4.48618164 -20.38183594 4.41064453 C-17.90791194 3.9841234 -16.1884544 3.19918518 -14 2 C-9.3896083 0.66389364 -4.82040628 -0.31099395 0 0 Z " fill="#338CCA" transform="translate(155,201)"/>
<path d="M0 0 C0.66 0 1.32 0 2 0 C2.13277344 0.71027344 2.26554687 1.42054688 2.40234375 2.15234375 C2.57894531 3.07144531 2.75554688 3.99054688 2.9375 4.9375 C3.11152344 5.85402344 3.28554688 6.77054688 3.46484375 7.71484375 C3.77714988 9.95289844 3.77714988 9.95289844 5 11 C5.04063832 12.66617115 5.042721 14.33388095 5 16 C5.66 16 6.32 16 7 16 C7.99 18.97 8.98 21.94 10 25 C10.66 25 11.32 25 12 25 C12.12375 25.804375 12.2475 26.60875 12.375 27.4375 C12.58125 28.283125 12.7875 29.12875 13 30 C13.66 30.33 14.32 30.66 15 31 C15.625 33.5625 15.625 33.5625 16 36 C11.58599566 32.08583936 9.2779804 28.16421644 6.875 22.8125 C6.52953125 22.0594458 6.1840625 21.3063916 5.828125 20.53051758 C2.81992715 13.85033776 0 7.40961 0 0 Z " fill="#3482C5" transform="translate(29,134)"/>
<path d="M0 0 C0.33 0.66 0.66 1.32 1 2 C0.57847656 2.54527344 0.15695312 3.09054688 -0.27734375 3.65234375 C-4.30973617 9.20281331 -5.96864775 13.17566095 -6 20 C-6.01417969 21.14082031 -6.02835937 22.28164062 -6.04296875 23.45703125 C-6.06020726 26.63926014 -6.04426119 29.81811231 -6 33 C-9.71089124 27.43366314 -9.62259071 21.53720249 -9 15 C-7.37160839 8.7342323 -4.97596225 4.14663521 0 0 Z " fill="#B8C2CB" transform="translate(294,77)"/>
<path d="M0 0 C1.34888732 0.00015905 2.69778075 0.00584927 4.04663086 0.01586914 C5.10991859 0.01799156 5.10991859 0.01799156 6.19468689 0.02015686 C8.46699173 0.02577096 10.73919936 0.03832576 13.01147461 0.05102539 C14.54858257 0.05603858 16.08569206 0.0606018 17.62280273 0.06469727 C21.39823103 0.07574497 25.17358632 0.09301898 28.94897461 0.11352539 C25.63503279 2.08770476 23.06131449 2.3857354 19.23022461 2.45727539 C18.13323242 2.48692383 17.03624023 2.51657227 15.90600586 2.54711914 C13.60131836 2.59138997 11.29663086 2.63566081 8.99194336 2.67993164 C7.89495117 2.70958008 6.79795898 2.73922852 5.66772461 2.76977539 C4.66676758 2.7884668 3.66581055 2.8071582 2.63452148 2.82641602 C-0.06492346 3.11501122 -1.73735662 3.73522806 -4.05102539 5.11352539 C-4.05102539 0.15073432 -4.05102539 0.15073432 0 0 Z " fill="#3199CB" transform="translate(73.051025390625,71.886474609375)"/>
<path d="M0 0 C0.99 0.33 1.98 0.66 3 1 C2.48050781 1.87140625 1.96101563 2.7428125 1.42578125 3.640625 C-2.56444047 10.42381036 -6.11324703 17.12821794 -8.9921875 24.4765625 C-9.88956639 26.72348793 -10.88261257 28.85582411 -12 31 C-11.88648483 29.18674449 -11.75887039 27.37436643 -11.625 25.5625 C-11.55539063 24.55316406 -11.48578125 23.54382813 -11.4140625 22.50390625 C-11.20910156 21.26447266 -11.20910156 21.26447266 -11 20 C-10.34 19.67 -9.68 19.34 -9 19 C-8.31270746 16.88153715 -8.31270746 16.88153715 -7.875 14.4375 C-7.70742188 13.61121094 -7.53984375 12.78492187 -7.3671875 11.93359375 C-7.24601562 11.29550781 -7.12484375 10.65742187 -7 10 C-6.01 10 -5.02 10 -4 10 C-3.87882812 9.36191406 -3.75765625 8.72382812 -3.6328125 8.06640625 C-3.38144531 6.82697266 -3.38144531 6.82697266 -3.125 5.5625 C-2.96257813 4.73878906 -2.80015625 3.91507812 -2.6328125 3.06640625 C-2.42398438 2.38449219 -2.21515625 1.70257813 -2 1 C-1.34 0.67 -0.68 0.34 0 0 Z " fill="#3197D0" transform="translate(52,67)"/>
<path d="M0 0 C0.66 0 1.32 0 2 0 C1.91621094 1.05316406 1.83242188 2.10632813 1.74609375 3.19140625 C1.03635582 12.93128177 1.07962995 22.27239657 2 32 C1.34 32 0.68 32 0 32 C-0.33 27.71 -0.66 23.42 -1 19 C-1.33 19 -1.66 19 -2 19 C-2.24991456 12.34949576 -1.73955334 6.43013467 0 0 Z " fill="#2F85CB" transform="translate(38,102)"/>
<path d="M0 0 C3.875 2.625 3.875 2.625 5 6 C5.14877911 8.5979122 5.23103235 11.15143149 5.25 13.75 C5.270625 14.4409375 5.29125 15.131875 5.3125 15.84375 C5.35090221 20.95124328 4.42854488 24.48336046 2 29 C1.01 29.66 0.02 30.32 -1 31 C-1 27.35282355 -0.15014372 24.45043117 1 21 C1.66 20.67 2.32 20.34 3 20 C3.50633351 10.58130358 3.50633351 10.58130358 0 2 C0 1.34 0 0.68 0 0 Z " fill="#D5E2E7" transform="translate(1130,126)"/>
<path d="M0 0 C1.4800841 0.11362262 2.95910074 0.24122908 4.4375 0.375 C5.26121094 0.44460937 6.08492187 0.51421875 6.93359375 0.5859375 C7.95646484 0.79089844 7.95646484 0.79089844 9 1 C9.33 1.66 9.66 2.32 10 3 C10.99 3.33 11.98 3.66 13 4 C13 4.66 13 5.32 13 6 C14.32 6 15.64 6 17 6 C17.33 6.99 17.66 7.98 18 9 C18.9590625 9.1546875 18.9590625 9.1546875 19.9375 9.3125 C20.618125 9.539375 21.29875 9.76625 22 10 C23.25 13.0625 23.25 13.0625 24 16 C23.01 15.195625 22.02 14.39125 21 13.5625 C14.47641051 8.63435359 7.15917309 4.90974258 0 1 C0 0.67 0 0.34 0 0 Z " fill="#3491CE" transform="translate(151,43)"/>
<path d="M0 0 C0.33 0.66 0.66 1.32 1 2 C-1.15197251 4.66505855 -3.31527717 7.31938503 -5.49609375 9.9609375 C-7.0493455 11.84616349 -8.58653048 13.74490463 -10.09765625 15.6640625 C-14.40413752 20.92088059 -17.18735918 23.1484199 -24 24 C-21.24734147 21.07530031 -18.53867016 18.62114645 -15.25 16.3125 C-9.22481171 11.91388345 -4.13001946 6.19502919 0 0 Z " fill="#3287C3" transform="translate(186,162)"/>
<path d="M0 0 C0.33 0 0.66 0 1 0 C3.5035281 9.9470536 3.18974296 19.82766893 3 30 C2.34 30 1.68 30 1 30 C0.37722531 19.99112106 -0.17707265 10.03411669 0 0 Z " fill="#3686C6" transform="translate(208,97)"/>
<path d="M0 0 C0.66 0.33 1.32 0.66 2 1 C2 1.99 2 2.98 2 4 C6.62 4.66 11.24 5.32 16 6 C16 6.33 16 6.66 16 7 C13.08308475 7.05401695 10.16717276 7.09368066 7.25 7.125 C6.425 7.14175781 5.6 7.15851563 4.75 7.17578125 C3.95078125 7.18222656 3.1515625 7.18867188 2.328125 7.1953125 C1.5949707 7.20578613 0.86181641 7.21625977 0.10644531 7.22705078 C-2.29896076 6.96777544 -3.91251494 6.19225925 -6 5 C-5.67 4.01 -5.34 3.02 -5 2 C-3.02 2.495 -3.02 2.495 -1 3 C-0.67 2.01 -0.34 1.02 0 0 Z " fill="#389DDE" transform="translate(74,136)"/>
<path d="M0 0 C0.66 0 1.32 0 2 0 C2 0.66 2 1.32 2 2 C2.99 2.33 3.98 2.66 5 3 C2.03 5.97 -0.94 8.94 -4 12 C-4.66 11.67 -5.32 11.34 -6 11 C-5.75 8.625 -5.75 8.625 -5 6 C-3.68352881 5.30062468 -2.34977849 4.63270867 -1 4 C-0.19471111 1.94999129 -0.19471111 1.94999129 0 0 Z " fill="#31A1E5" transform="translate(60,55)"/>
<path d="M0 0 C7.7306703 3.2706682 11.75108298 9.08420953 16 16 C14.68 16 13.36 16 12 16 C11.67 15.01 11.34 14.02 11 13 C9.68 13.33 8.36 13.66 7 14 C7 11.69 7 9.38 7 7 C6.401875 6.773125 5.80375 6.54625 5.1875 6.3125 C2.43648112 4.66188867 1.47515363 2.8027919 0 0 Z " fill="#3593D3" transform="translate(176,47)"/>
<path d="M0 0 C2.125 0.9375 2.125 0.9375 4 2 C3.67 3.98 3.34 5.96 3 8 C2.67 7.01 2.34 6.02 2 5 C2.33 4.34 2.66 3.68 3 3 C0.525 4.485 0.525 4.485 -2 6 C-1.34 6.66 -0.68 7.32 0 8 C-0.375 10.125 -0.375 10.125 -1 12 C-4.67230705 8.92000054 -5.56802365 6.7517398 -6 2 C-5.38125 1.855625 -4.7625 1.71125 -4.125 1.5625 C-1.96741678 1.06847775 -1.96741678 1.06847775 0 0 Z " fill="#2EA3E8" transform="translate(180,52)"/>
<path d="M0 0 C0.66 0 1.32 0 2 0 C2.66 2.31 3.32 4.62 4 7 C4.62648438 7.04898438 5.25296875 7.09796875 5.8984375 7.1484375 C6.71570313 7.22320312 7.53296875 7.29796875 8.375 7.375 C9.59316406 7.47941406 9.59316406 7.47941406 10.8359375 7.5859375 C13 8 13 8 15 10 C13.08404032 10.08133791 11.16708068 10.13934367 9.25 10.1875 C8.18265625 10.22230469 7.1153125 10.25710937 6.015625 10.29296875 C2.69972145 9.97082786 1.40983327 9.22851086 -1 7 C-0.67 4.69 -0.34 2.38 0 0 Z " fill="#3D93CD" transform="translate(68,93)"/>
<path d="M0 0 C0.680625 0.165 1.36125 0.33 2.0625 0.5 C5.4164822 1.07089059 8.60389805 1.06659023 12 1 C11.67 1.99 11.34 2.98 11 4 C11.66 4.33 12.32 4.66 13 5 C2.44191344 6.51708428 2.44191344 6.51708428 -2 4 C-1.34 2.68 -0.68 1.36 0 0 Z " fill="#EBF3F7" transform="translate(598,161)"/>
<path d="M0 0 C1.13888672 0.0009668 1.13888672 0.0009668 2.30078125 0.00195312 C5.86241141 0.03002201 9.07420841 0.23032161 12.5 1.1875 C12.5 1.8475 12.5 2.5075 12.5 3.1875 C4.25 2.8575 -4 2.5275 -12.5 2.1875 C-8.07311159 -0.0259442 -4.79732976 -0.07737629 0 0 Z " fill="#328ECE" transform="translate(122.5,25.8125)"/>
<path d="M0 0 C1.41623216 -0.05447047 2.83308191 -0.09300508 4.25 -0.125 C5.03890625 -0.14820313 5.8278125 -0.17140625 6.640625 -0.1953125 C9.24463116 0.02025092 10.69928584 0.81369426 13 2 C15.35564596 2.44811137 15.35564596 2.44811137 17.75 2.625 C18.54921875 2.69976562 19.3484375 2.77453125 20.171875 2.8515625 C20.77515625 2.90054688 21.3784375 2.94953125 22 3 C22 3.66 22 4.32 22 5 C14.46783285 4.55761615 7.3197277 3.86094772 0 2 C0 1.34 0 0.68 0 0 Z " fill="#379CDC" transform="translate(92,203)"/>
<path d="M0 0 C0.66 0 1.32 0 2 0 C0.70788526 7.26814542 -3.54189782 12.26667324 -8 18 C-8.33 16.68 -8.66 15.36 -9 14 C-8.01 13.67 -7.02 13.34 -6 13 C-5.67 11.02 -5.34 9.04 -5 7 C-3.68 6.67 -2.36 6.34 -1 6 C-1.020625 5.195625 -1.04125 4.39125 -1.0625 3.5625 C-1 1 -1 1 0 0 Z " fill="#3598D3" transform="translate(200,155)"/>
<path d="M0 0 C0.99 0.33 1.98 0.66 3 1 C1.46990911 4.44270451 -0.4931222 7.18925822 -3 10 C-3.99 10.33 -4.98 10.66 -6 11 C-6.33 10.01 -6.66 9.02 -7 8 C-6.01 7.67 -5.02 7.34 -4 7 C-4 6.01 -4 5.02 -4 4 C-2 1.8125 -2 1.8125 0 0 Z " fill="#C9D2D6" transform="translate(357,148)"/>
<path d="M0 0 C0.99 0.66 1.98 1.32 3 2 C3.4375 4.4375 3.4375 4.4375 3 7 C1.3125 8.9375 1.3125 8.9375 -1 10 C-3.75 9.1875 -3.75 9.1875 -6 8 C-6 6.35 -6 4.7 -6 3 C-5.01 3.495 -5.01 3.495 -4 4 C-4 4.99 -4 5.98 -4 7 C-2.68 7 -1.36 7 0 7 C0 4.69 0 2.38 0 0 Z " fill="#3496D5" transform="translate(168,113)"/>
<path d="M0 0 C1.35439668 2.70879335 1.06501451 5.00933268 1 8 C0.01 8.33 -0.98 8.66 -2 9 C-2 9.99 -2 10.98 -2 12 C-2.66 12 -3.32 12 -4 12 C-4.33 12.99 -4.66 13.98 -5 15 C-5.68359375 13.359375 -5.68359375 13.359375 -6 11 C-4.78515625 8.203125 -4.78515625 8.203125 -3.0625 5.25 C-2.49660156 4.26515625 -1.93070313 3.2803125 -1.34765625 2.265625 C-0.90292969 1.51796875 -0.45820312 0.7703125 0 0 Z " fill="#3297DA" transform="translate(39,73)"/>
<path d="M0 0 C0.66 0 1.32 0 2 0 C2.39325819 6.97669157 1.63096039 12.51656189 -1 19 C-1.33 19 -1.66 19 -2 19 C-2.09765625 12.84765625 -2.09765625 12.84765625 -2 11 C-1.67 10.67 -1.34 10.34 -1 10 C-0.76712992 8.31816052 -0.58735834 6.6287584 -0.4375 4.9375 C-0.35371094 4.01839844 -0.26992187 3.09929687 -0.18359375 2.15234375 C-0.12300781 1.44207031 -0.06242188 0.73179687 0 0 Z " fill="#3896D9" transform="translate(207,128)"/>
<path d="M0 0 C0.33 0.66 0.66 1.32 1 2 C0.59007812 2.60328125 0.18015625 3.2065625 -0.2421875 3.828125 C-1.05042969 5.02695313 -1.05042969 5.02695313 -1.875 6.25 C-2.40867187 7.03890625 -2.94234375 7.8278125 -3.4921875 8.640625 C-4.81822015 10.71555692 -5.94928175 12.77614972 -7 15 C-7.90922753 12.52180058 -8.18726604 11.42791933 -7.109375 8.96484375 C-6.66078125 8.29582031 -6.2121875 7.62679687 -5.75 6.9375 C-5.09257812 5.93009766 -5.09257812 5.93009766 -4.421875 4.90234375 C-3.068182 3.09122152 -1.64181171 1.5500634 0 0 Z " fill="#BFC9D1" transform="translate(294,77)"/>
<path d="M0 0 C1.65 0 3.3 0 5 0 C5 7.59 5 15.18 5 23 C4.67 23 4.34 23 4 23 C3.67 16.4 3.34 9.8 3 3 C2.34 2.67 1.68 2.34 1 2 C0.67 1.34 0.34 0.68 0 0 Z " fill="#C0CCD3" transform="translate(413,89)"/>
<path d="M0 0 C1.32 0.33 2.64 0.66 4 1 C4 1.66 4 2.32 4 3 C5.32 3 6.64 3 8 3 C8.99 5.97 9.98 8.94 11 12 C10.01 11.34 9.02 10.68 8 10 C8 9.34 8 8.68 8 8 C7.4225 7.79375 6.845 7.5875 6.25 7.375 C3.18589456 5.50249112 1.84460032 3.03041481 0 0 Z " fill="#3192C9" transform="translate(45,171)"/>
<path d="M0 0 C0.33 1.32 0.66 2.64 1 4 C-2.28696233 4.79953138 -3.71023192 5.09658936 -7 4 C-7.6875 1.9375 -7.6875 1.9375 -8 0 C-4.94736336 -0.98120464 -3.05263664 -0.98120464 0 0 Z " fill="#D3DCE1" transform="translate(313,122)"/>
<path d="M0 0 C2.26001943 2.16557085 4.18429086 4.43482235 6.0625 6.9375 C6.56910156 7.60652344 7.07570313 8.27554688 7.59765625 8.96484375 C8.94142289 10.91498976 9.99826007 12.85752273 11 15 C9.8274869 14.04882866 8.66212985 13.08882991 7.5 12.125 C6.8503125 11.59132812 6.200625 11.05765625 5.53125 10.5078125 C5.0259375 10.01023438 4.520625 9.51265625 4 9 C4 8.34 4 7.68 4 7 C2.68 6.67 1.36 6.34 0 6 C0 4.02 0 2.04 0 0 Z " fill="#3489C4" transform="translate(49,158)"/>
<path d="M0 0 C0.66 1.32 1.32 2.64 2 4 C1.16855469 4.25523438 1.16855469 4.25523438 0.3203125 4.515625 C-4.25122977 5.90825986 -4.25122977 5.90825986 -7.5 9.1875 C-7.7475 10.0846875 -7.7475 10.0846875 -8 11 C-8.66 10.34 -9.32 9.68 -10 9 C-6.83047153 5.73991357 -3.60062011 2.77762123 0 0 Z " fill="#BAC3D4" transform="translate(585,91)"/>
<path d="M0 0 C-2.45334555 1.36396462 -4.91191234 2.71634169 -7.375 4.0625 C-8.42300781 4.64741211 -8.42300781 4.64741211 -9.4921875 5.24414062 C-11.29610184 6.22415178 -13.14583482 7.11875071 -15 8 C-15.66 7.67 -16.32 7.34 -17 7 C-16.01 6.67 -15.02 6.34 -14 6 C-14 5.34 -14 4.68 -14 4 C-12.35 3.67 -10.7 3.34 -9 3 C-9 2.34 -9 1.68 -9 1 C-3.375 -1.125 -3.375 -1.125 0 0 Z " fill="#358DBD" transform="translate(89,43)"/>
<path d="M0 0 C0 0.66 0 1.32 0 2 C-4.95 2.33 -9.9 2.66 -15 3 C-15 2.34 -15 1.68 -15 1 C-9.94997778 -0.03590199 -5.12583611 -0.10251672 0 0 Z " fill="#3DA3D1" transform="translate(131,206)"/>
<path d="M0 0 C3.05166746 1.04758734 3.90092808 1.81440705 5.44921875 4.71484375 C6.06216797 6.31005859 6.06216797 6.31005859 6.6875 7.9375 C7.31205078 9.52884766 7.31205078 9.52884766 7.94921875 11.15234375 C8.66429741 13.0902335 9.34679604 15.04038812 10 17 C9.34 17 8.68 17 8 17 C6.85170023 14.730384 5.70628022 12.45939222 4.5625 10.1875 C4.23701172 9.54490234 3.91152344 8.90230469 3.57617188 8.24023438 C2.20767324 5.51734534 0.96516735 2.89550206 0 0 Z " fill="#2F78CA" transform="translate(185,70)"/>
<path d="M0 0 C0 0.66 0 1.32 0 2 C-0.66 2 -1.32 2 -2 2 C-2 3.32 -2 4.64 -2 6 C-5.3 6 -8.6 6 -12 6 C-4 0 -4 0 0 0 Z " fill="#319BD4" transform="translate(83,34)"/>
<path d="M0 0 C-0.33 0.99 -0.66 1.98 -1 3 C-3.97 3 -6.94 3 -10 3 C-10 2.01 -10 1.02 -10 0 C-6.30581799 -1.231394 -3.7943739 -0.64432764 0 0 Z " fill="#DDE4E9" transform="translate(955,163)"/>
<path d="M0 0 C0.66 0 1.32 0 2 0 C3.00298644 2.55305639 3.13281038 3.65848759 2.125 6.25 C-1.22967444 9.01267307 -4.81957867 8.3155035 -9 8 C-5.5647952 5.70986347 -4.014669 5.82157027 0 6 C0 4.02 0 2.04 0 0 Z " fill="#388BC8" transform="translate(122,154)"/>
<path d="M0 0 C0.66 0.33 1.32 0.66 2 1 C0.7260411 3.03833424 -0.61061923 5.03852126 -2 7 C-2.66 7 -3.32 7 -4 7 C-4 7.66 -4 8.32 -4 9 C-5.32 8.67 -6.64 8.34 -8 8 C-3.375 2.25 -3.375 2.25 0 0 Z " fill="#B9C1CB" transform="translate(500,92)"/>
<path d="M0 0 C2.44839588 3.67259383 4 6.54648201 4 11 C2.35 10.67 0.7 10.34 -1 10 C-0.67 6.7 -0.34 3.4 0 0 Z " fill="#3295DC" transform="translate(204,85)"/>
<path d="M0 0 C2.3125 0.20703125 2.3125 0.20703125 5 0.8125 C5.886875 1.00457031 6.77375 1.19664062 7.6875 1.39453125 C10 2 10 2 12 3 C10.26150372 4.73849628 7.9213363 4.17216296 5.5625 4.1875 C4.57378906 4.20167969 3.58507812 4.21585938 2.56640625 4.23046875 C0 4 0 4 -2 2 C-1.34 1.34 -0.68 0.68 0 0 Z " fill="#EAF2FA" transform="translate(295,162)"/>
<path d="M0 0 C1.53674273 2.99004241 2.90306293 6.01823885 4.1875 9.125 C4.55230469 9.99382812 4.91710938 10.86265625 5.29296875 11.7578125 C6 14 6 14 5 16 C0.0693666 11.38747198 0.2229777 6.36601332 0 0 Z " fill="#3696CF" transform="translate(40,137)"/>
<path d="M0 0 C0.33 0.99 0.66 1.98 1 3 C-2.85477249 5.56984833 -6.52040582 6.85814266 -11 8 C-11.66 7.34 -12.32 6.68 -13 6 C-12.14535156 5.65066406 -11.29070312 5.30132812 -10.41015625 4.94140625 C-9.30542969 4.48636719 -8.20070312 4.03132812 -7.0625 3.5625 C-5.96035156 3.11003906 -4.85820312 2.65757812 -3.72265625 2.19140625 C-1.13431084 1.25575392 -1.13431084 1.25575392 0 0 Z " fill="#3688CC" transform="translate(160,186)"/>
<path d="M0 0 C0.33 0.66 0.66 1.32 1 2 C0.0980639 3.48819457 -0.82214129 4.96532813 -1.75 6.4375 C-2.51570313 7.67306641 -2.51570313 7.67306641 -3.296875 8.93359375 C-5.1792182 11.21744593 -6.1157546 11.65514457 -9 12 C-6.2520787 7.72545575 -3.30749011 3.85873847 0 0 Z " fill="#2E82CD" transform="translate(54,52)"/>
<path d="M0 0 C4.97093824 0.41153737 9.44508386 0.79600832 14 3 C14 3.33 14 3.66 14 4 C12.22880197 3.85866501 10.45804713 3.71176792 8.6875 3.5625 C7.70136719 3.48128906 6.71523437 3.40007813 5.69921875 3.31640625 C3 3 3 3 0 2 C0 1.34 0 0.68 0 0 Z " fill="#308ACC" transform="translate(136,28)"/>
<path d="M0 0 C-0.33 0.99 -0.66 1.98 -1 3 C-4.01490557 4.00496852 -6.04181692 4.10335303 -9.1875 4.0625 C-10.53908203 4.04896484 -10.53908203 4.04896484 -11.91796875 4.03515625 C-12.60503906 4.02355469 -13.29210937 4.01195312 -14 4 C-14 3.67 -14 3.34 -14 3 C-12.23050388 2.49528803 -10.45934777 1.99639315 -8.6875 1.5 C-7.70136719 1.2215625 -6.71523437 0.943125 -5.69921875 0.65625 C-3 0 -3 0 0 0 Z " fill="#347EC2" transform="translate(147,193)"/>
<path d="M0 0 C8.57142857 1 8.57142857 1 12 2 C7.8803623 3.29243536 4.33168317 4.26252625 0 4 C0 2.68 0 1.36 0 0 Z " fill="#A1A9B6" transform="translate(332,162)"/>
<path d="M0 0 C3.63 0 7.26 0 11 0 C11 0.99 11 1.98 11 3 C7.37 2.67 3.74 2.34 0 2 C0 1.34 0 0.68 0 0 Z " fill="#EDF4FA" transform="translate(519,108)"/>
<path d="M0 0 C4.61286713 1.31796204 8.14865412 3.13388214 12 6 C12.33 6.66 12.66 7.32 13 8 C5.81543274 6.23774765 5.81543274 6.23774765 3 3 C2.01 2.67 1.02 2.34 0 2 C0 1.34 0 0.68 0 0 Z " fill="#367EB8" transform="translate(161,37)"/>
<path d="M0 0 C0.33 0 0.66 0 1 0 C0.67 2.97 0.34 5.94 0 9 C-1.32 9.33 -2.64 9.66 -4 10 C-3.29445932 6.33118845 -1.72264494 3.29549466 0 0 Z " fill="#348EC5" transform="translate(191,152)"/>
<path d="M0 0 C0.33 0.66 0.66 1.32 1 2 C1.66 2 2.32 2 3 2 C3.185625 3.2065625 3.185625 3.2065625 3.375 4.4375 C3.58125 5.283125 3.7875 6.12875 4 7 C4.66 7.33 5.32 7.66 6 8 C6.625 10.5625 6.625 10.5625 7 13 C1.26598465 7.56777494 1.26598465 7.56777494 0 4 C0 2.68 0 1.36 0 0 Z " fill="#2D87CF" transform="translate(38,157)"/>
<path d="M0 0 C-2.77280706 3.08089673 -5.06326356 4.68775452 -9 6 C-7.01260984 0.46369883 -5.82303895 -0.15323787 0 0 Z " fill="#CCD4DB" transform="translate(1129,157)"/>
<path d="M0 0 C0.66 0.33 1.32 0.66 2 1 C-2.30769231 6.78461538 -2.30769231 6.78461538 -5.8125 7.875 C-6.8953125 7.936875 -6.8953125 7.936875 -8 8 C-8 7.34 -8 6.68 -8 6 C-6.25 4.4921875 -6.25 4.4921875 -4 2.875 C-3.2575 2.33617187 -2.515 1.79734375 -1.75 1.2421875 C-1.1725 0.83226562 -0.595 0.42234375 0 0 Z " fill="#328ECA" transform="translate(69,40)"/>
<path d="M0 0 C3.54971796 0.60852308 6.76693609 1.38346804 10 3 C10.33 3.99 10.66 4.98 11 6 C9.53775201 5.57576756 8.08026588 5.13509755 6.625 4.6875 C5.81289063 4.44386719 5.00078125 4.20023438 4.1640625 3.94921875 C2 3 2 3 0 0 Z " fill="#AEC4C9" transform="translate(500,159)"/>
<path d="M0 0 C0.2475 0.61875 0.495 1.2375 0.75 1.875 C2.27086814 4.46047584 3.20046219 4.98905579 6 6 C7.99110401 6.38290462 9.99100513 6.72604615 12 7 C12 7.33 12 7.66 12 8 C10.37581255 8.08090971 8.75048255 8.13914995 7.125 8.1875 C5.76761719 8.23970703 5.76761719 8.23970703 4.3828125 8.29296875 C3.20332031 8.14794922 3.20332031 8.14794922 2 8 C-0.1519437 4.77208445 -0.20086443 3.71599191 0 0 Z " fill="#3786B2" transform="translate(67,154)"/>
<path d="M0 0 C4.0369867 1.79421631 6.64480474 3.20551875 9 7 C7 6 5 5 3 4 C1.32345271 4.27942455 -0.34608154 4.60828247 -2 5 C-1.34 3.35 -0.68 1.7 0 0 Z " fill="#B4BFC9" transform="translate(349,114)"/>
<path d="M0 0 C2.50357861 0.8345262 4.66785852 1.79371992 7 3 C5.68 3.99 4.36 4.98 3 6 C1.0625 5.1875 1.0625 5.1875 -1 4 C-1.33 3.01 -1.66 2.02 -2 1 C-1.34 0.67 -0.68 0.34 0 0 Z " fill="#D9DDE2" transform="translate(1009,89)"/>
<path d="M0 0 C-0.33 1.32 -0.66 2.64 -1 4 C-3.3125 4.625 -3.3125 4.625 -6 5 C-6.99 4.34 -7.98 3.68 -9 3 C-2.25 0 -2.25 0 0 0 Z " fill="#D1DAE2" transform="translate(307,71)"/>
<path d="M0 0 C6.15234375 -0.09765625 6.15234375 -0.09765625 8 0 C9 1 9 1 9.0625 3.5625 C9.041875 4.366875 9.02125 5.17125 9 6 C8.01 6 7.02 6 6 6 C5.67 4.68 5.34 3.36 5 2 C3.35 1.67 1.7 1.34 0 1 C0 0.67 0 0.34 0 0 Z " fill="#3494D8" transform="translate(162,74)"/>
<path d="M0 0 C0 0.99 0 1.98 0 3 C-0.86625 3.309375 -0.86625 3.309375 -1.75 3.625 C-4.81410544 5.49750888 -6.15539968 7.96958519 -8 11 C-8.66 10.67 -9.32 10.34 -10 10 C-9.2884375 9.1028125 -9.2884375 9.1028125 -8.5625 8.1875 C-6.83534256 5.99617076 -6.83534256 5.99617076 -6 3 C-2.55555556 0 -2.55555556 0 0 0 Z " fill="#2E93DA" transform="translate(61,48)"/>
<path d="M0 0 C1.60495567 0.11442461 3.20898119 0.24194694 4.8125 0.375 C5.70582031 0.44460937 6.59914063 0.51421875 7.51953125 0.5859375 C10 1 10 1 13 3 C8.38 3 3.76 3 -1 3 C-0.67 2.01 -0.34 1.02 0 0 Z " fill="#ECF3F9" transform="translate(1083,163)"/>
<path d="M0 0 C0.33 0.66 0.66 1.32 1 2 C3.12576782 2.46651207 3.12576782 2.46651207 5.5625 2.625 C6.38878906 2.69976562 7.21507812 2.77453125 8.06640625 2.8515625 C8.70449219 2.90054688 9.34257813 2.94953125 10 3 C10 3.66 10 4.32 10 5 C6.37 5 2.74 5 -1 5 C-0.67 3.35 -0.34 1.7 0 0 Z " fill="#EEF5F9" transform="translate(516,161)"/>
<path d="M0 0 C0.66 0 1.32 0 2 0 C2 0.99 2 1.98 2 3 C2.66 3 3.32 3 4 3 C4.66 4.32 5.32 5.64 6 7 C0.06 5.515 0.06 5.515 -6 4 C-6 3.67 -6 3.34 -6 3 C-4.02 2.67 -2.04 2.34 0 2 C0 1.34 0 0.68 0 0 Z " fill="#B9C0C6" transform="translate(757,105)"/>
<path d="M0 0 C0 0.66 0 1.32 0 2 C-3.3146667 4.02907167 -5.4315979 4.12742133 -9.25 3.625 C-10.14203125 3.51414063 -11.0340625 3.40328125 -11.953125 3.2890625 C-12.62859375 3.19367188 -13.3040625 3.09828125 -14 3 C-14 2.67 -14 2.34 -14 2 C-13.06027344 1.90912109 -13.06027344 1.90912109 -12.1015625 1.81640625 C-10.87566406 1.69072266 -10.87566406 1.69072266 -9.625 1.5625 C-8.81289063 1.48128906 -8.00078125 1.40007812 -7.1640625 1.31640625 C-4.39098241 0.91095591 -2.91201214 0 0 0 Z " fill="#929FAB" transform="translate(339,140)"/>
<path d="M0 0 C0.99 0.33 1.98 0.66 3 1 C2.43454163 4.95820859 1.19097652 7.6659053 -1 11 C-2.33332095 8.3333581 -1.67102033 6.83319697 -1 4 C-0.34 4 0.32 4 1 4 C0.67 2.68 0.34 1.36 0 0 Z " fill="#B3C7CD" transform="translate(886,131)"/>
<path d="M0 0 C-1.65 0.33 -3.3 0.66 -5 1 C-5.12375 1.639375 -5.2475 2.27875 -5.375 2.9375 C-5.58125 3.618125 -5.7875 4.29875 -6 5 C-6.99 5.495 -6.99 5.495 -8 6 C-8 5.34 -8 4.68 -8 4 C-8.66 3.67 -9.32 3.34 -10 3 C-3.94594595 -1.97297297 -3.94594595 -1.97297297 0 0 Z " fill="#C4CCD3" transform="translate(690,89)"/>
<path d="M0 0 C5.57142857 5.14285714 5.57142857 5.14285714 6 9 C5.34 9 4.68 9 4 9 C3.67 8.34 3.34 7.68 3 7 C2.01 6.34 1.02 5.68 0 5 C-0.1875 2.375 -0.1875 2.375 0 0 Z " fill="#348DC9" transform="translate(192,63)"/>
<path d="M0 0 C0 0.33 0 0.66 0 1 C-1.76774419 1.53122363 -3.53934083 2.04964073 -5.3125 2.5625 C-6.29863281 2.85253906 -7.28476563 3.14257812 -8.30078125 3.44140625 C-11 4 -11 4 -14 3 C-13.67 2.34 -13.34 1.68 -13 1 C-8.65012229 -0.03568517 -4.45537928 -0.08910759 0 0 Z " fill="#3C9ED6" transform="translate(103,38)"/>
<path d="M0 0 C2.00720923 0.28674418 4.0085944 0.61866701 6 1 C4 3 2 5 0 7 C-1 6 -1 6 -1.125 3.5 C-1 1 -1 1 0 0 Z " fill="#339CE4" transform="translate(69,152)"/>
<path d="M0 0 C0 3.86695678 -1.41909971 6.5088452 -3 10 C-3.66 10 -4.32 10 -5 10 C-4.55090939 8.51800098 -4.09043436 7.03944764 -3.625 5.5625 C-3.36976563 4.73878906 -3.11453125 3.91507813 -2.8515625 3.06640625 C-2 1 -2 1 0 0 Z " fill="#378BCC" transform="translate(197,142)"/>
<path d="M0 0 C-1.98 0.33 -3.96 0.66 -6 1 C-5.04134491 3.33075929 -5.04134491 3.33075929 -2 5 C-3.65 5 -5.3 5 -7 5 C-7.33 3.35 -7.66 1.7 -8 0 C-4.94736336 -0.98120464 -3.05263664 -0.98120464 0 0 Z " fill="#B3BAC1" transform="translate(1096,109)"/>
<path d="M0 0 C0.763125 0.0825 1.52625 0.165 2.3125 0.25 C-1.4375 5.125 -1.4375 5.125 -3.6875 6.25 C-4.3475 5.59 -5.0075 4.93 -5.6875 4.25 C-3.34903846 0.31153846 -3.34903846 0.31153846 0 0 Z " fill="#C6CCDD" transform="translate(912.6875,94.75)"/>
<path d="M0 0 C4.12751449 0.60698743 7.3321148 2.03810791 11 4 C9.68 4.99 8.36 5.98 7 7 C4.66666667 4.66666667 2.33333333 2.33333333 0 0 Z " fill="#3396D1" transform="translate(150,32)"/>
<path d="M0 0 C1.98 0 3.96 0 6 0 C6.66 1.98 7.32 3.96 8 6 C4.08597051 4.73058503 2.20927127 3.48832306 0 0 Z " fill="#338DC4" transform="translate(58,185)"/>
<path d="M0 0 C4.75 1.875 4.75 1.875 7 3 C6 4 6 4 3.93359375 4.09765625 C3.10988281 4.08605469 2.28617188 4.07445312 1.4375 4.0625 C0.61121094 4.05347656 -0.21507812 4.04445312 -1.06640625 4.03515625 C-1.70449219 4.02355469 -2.34257813 4.01195312 -3 4 C-2.34 3.67 -1.68 3.34 -1 3 C-0.67 2.01 -0.34 1.02 0 0 Z " fill="#C2CCDF" transform="translate(1076,162)"/>
<path d="M0 0 C2.97 0.33 5.94 0.66 9 1 C7.68 1.33 6.36 1.66 5 2 C4.67 2.66 4.34 3.32 4 4 C3.01 4.33 2.02 4.66 1 5 C0.67 3.35 0.34 1.7 0 0 Z " fill="#ADB3C2" transform="translate(1065,140)"/>
<path d="M0 0 C2.4375 0.6875 2.4375 0.6875 5 2 C5.8125 4.625 5.8125 4.625 6 7 C3 5.1875 3 5.1875 0 3 C0 2.01 0 1.02 0 0 Z " fill="#CAD0D5" transform="translate(530,107)"/>
<path d="M0 0 C1.8871875 0.061875 1.8871875 0.061875 3.8125 0.125 C2.8225 1.61 2.8225 1.61 1.8125 3.125 C-1.1575 2.795 -4.1275 2.465 -7.1875 2.125 C-4.09861478 0.06574319 -3.47814073 -0.1140374 0 0 Z " fill="#F2F7FD" transform="translate(840.1875,67.875)"/>
<path d="M0 0 C0.99 0.33 1.98 0.66 3 1 C3.33 1.99 3.66 2.98 4 4 C2.35 4.66 0.7 5.32 -1 6 C-1.042721 4.33388095 -1.04063832 2.66617115 -1 1 C-0.67 0.67 -0.34 0.34 0 0 Z " fill="#22ACF7" transform="translate(62,179)"/>
<path d="M0 0 C0.99 0 1.98 0 3 0 C3.33 1.65 3.66 3.3 4 5 C1.36 4.67 -1.28 4.34 -4 4 C-3.01 3.67 -2.02 3.34 -1 3 C-0.67 2.01 -0.34 1.02 0 0 Z " fill="#B5C0C5" transform="translate(291,161)"/>
<path d="M0 0 C1.32 0.66 2.64 1.32 4 2 C3.67 3.32 3.34 4.64 3 6 C-0.875 4.25 -0.875 4.25 -2 2 C-1.34 1.34 -0.68 0.68 0 0 Z " fill="#D3DCE4" transform="translate(497,153)"/>
<path d="M0 0 C-3.44450737 2.29633824 -5.93812283 2.54016485 -10 3 C-7.7846105 -1.43077901 -4.3377361 -1.20492669 0 0 Z " fill="#C4CCD5" transform="translate(522,110)"/>
<path d="M0 0 C0 3.10551666 -0.5393715 4.35261084 -2 7 C-2.99 6.67 -3.98 6.34 -5 6 C-3.63016497 2.83884224 -3.0109362 2.0072908 0 0 Z " fill="#B4BCC0" transform="translate(445,94)"/>
<path d="M0 0 C0.33 0 0.66 0 1 0 C1 1.65 1 3.3 1 5 C-1.31 5.33 -3.62 5.66 -6 6 C-5.01 5.67 -4.02 5.34 -3 5 C-3 4.01 -3 3.02 -3 2 C-2.01 2 -1.02 2 0 2 C0 1.34 0 0.68 0 0 Z " fill="#A7B0BA" transform="translate(554,159)"/>
<path d="M0 0 C0.66 0 1.32 0 2 0 C0.14285714 7.57142857 0.14285714 7.57142857 -3 10 C-3 8.68 -3 7.36 -3 6 C-2.34 6 -1.68 6 -1 6 C-1.0309375 4.7934375 -1.0309375 4.7934375 -1.0625 3.5625 C-1 1 -1 1 0 0 Z " fill="#358CCA" transform="translate(200,155)"/>
<path d="M0 0 C0.66 1.65 1.32 3.3 2 5 C1.01 5.495 1.01 5.495 0 6 C-2 4 -2 4 -4 1 C-2 0 -2 0 0 0 Z " fill="#EDF3F7" transform="translate(389,153)"/>
<path d="M0 0 C0 0.66 0 1.32 0 2 C-1.2065625 2.433125 -1.2065625 2.433125 -2.4375 2.875 C-5.1326468 3.73262568 -5.1326468 3.73262568 -6 6 C-6.33 5.34 -6.66 4.68 -7 4 C-3.375 0 -3.375 0 0 0 Z " fill="#D0D8DF" transform="translate(1082,89)"/>
<path d="M0 0 C0.99 0 1.98 0 3 0 C1.60667426 3.36720387 0.0210714 4.9859524 -3 7 C-3 6.01 -3 5.02 -3 4 C-2.34 4 -1.68 4 -1 4 C-0.67 2.68 -0.34 1.36 0 0 Z " fill="#3489C9" transform="translate(188,173)"/>
<path d="M0 0 C3.4375 0.8125 3.4375 0.8125 7 2 C7.33 2.99 7.66 3.98 8 5 C2.25 3.375 2.25 3.375 0 0 Z " fill="#BBC4CD" transform="translate(387,158)"/>
<path d="M0 0 C0 0.66 0 1.32 0 2 C-2.8125 2.625 -2.8125 2.625 -6 3 C-6.99 2.34 -7.98 1.68 -9 1 C-5.92677456 0.08941469 -3.19902639 -0.08886184 0 0 Z " fill="#ACB7C5" transform="translate(1053,140)"/>
<path d="M0 0 C1.125 1.75 1.125 1.75 2 4 C1.125 6.25 1.125 6.25 0 8 C-0.66 7.67 -1.32 7.34 -2 7 C-1.34 4.69 -0.68 2.38 0 0 Z " fill="#EAF2F7" transform="translate(627,125)"/>
<path d="M0 0 C0.99 0.33 1.98 0.66 3 1 C3 1.66 3 2.32 3 3 C4.32 3.33 5.64 3.66 7 4 C3.7 4 0.4 4 -3 4 C-2.01 2.68 -1.02 1.36 0 0 Z " fill="#EEF4F9" transform="translate(1030,105)"/>
<path d="M0 0 C0.66 0.33 1.32 0.66 2 1 C1 4 1 4 -1.4375 5.75 C-2.7059375 6.36875 -2.7059375 6.36875 -4 7 C-4.66 6.67 -5.32 6.34 -6 6 C-4.02 4.02 -2.04 2.04 0 0 Z " fill="#B3BDC7" transform="translate(678,93)"/>
</svg>
